<svg width="40" height="40" viewBox="0 0 40 40" fill="none" xmlns="http://www.w3.org/2000/svg">
<path fill-rule="evenodd" clip-rule="evenodd" d="M32.963 3.33331H7.03705C6.05476 3.33331 5.11271 3.72352 4.41813 4.4181C3.72355 5.11268 3.33334 6.05473 3.33334 7.03702V32.9629C3.33334 33.9452 3.72355 34.8873 4.41813 35.5819C5.11271 36.2764 6.05476 36.6666 7.03705 36.6666H32.963C33.9453 36.6666 34.8873 36.2764 35.5819 35.5819C36.2765 34.8873 36.6667 33.9452 36.6667 32.9629V7.03702C36.6667 6.05473 36.2765 5.11268 35.5819 4.4181C34.8873 3.72352 33.9453 3.33331 32.963 3.33331ZM12.3033 14.4246L17.6066 19.7279L12.3033 25.0312L14.4246 27.1525L19.7279 21.8492L25.0312 27.1525L27.1526 25.0312L21.8493 19.7279L27.1526 14.4246L25.0312 12.3033L19.7279 17.6066L14.4246 12.3033L12.3033 14.4246Z" fill="black"/>
</svg>
