<svg width="40" height="40" viewBox="0 0 40 40" fill="none" xmlns="http://www.w3.org/2000/svg">
<path d="M32.963 36.6667L7.03703 36.6667C6.05474 36.6667 5.11269 36.2765 4.41811 35.5819C3.72353 34.8873 3.33332 33.9453 3.33332 32.963L3.33332 7.03706C3.33332 6.05477 3.72353 5.11272 4.41811 4.41814C5.11269 3.72356 6.05474 3.33335 7.03703 3.33335L32.963 3.33335C33.9452 3.33335 34.8873 3.72356 35.5819 4.41814C36.2764 5.11272 36.6667 6.05477 36.6667 7.03706L36.6667 32.963C36.6667 33.9453 36.2764 34.8873 35.5819 35.5819C34.8873 36.2765 33.9452 36.6667 32.963 36.6667ZM18.1481 18.1482L18.1481 29.2593L21.8518 29.2593V18.1482H18.1481ZM18.1481 10.7408V14.4445H21.8518V10.7408H18.1481Z" fill="black"/>
</svg>
