<svg width="40" height="40" viewBox="0 0 40 40" fill="none" xmlns="http://www.w3.org/2000/svg">
<path d="M7.03705 3.33331H32.963C33.9453 3.33331 34.8873 3.72352 35.5819 4.4181C36.2765 5.11268 36.6667 6.05473 36.6667 7.03702V32.9629C36.6667 33.9452 36.2765 34.8873 35.5819 35.5819C34.8873 36.2764 33.9453 36.6666 32.963 36.6666H7.03705C6.05476 36.6666 5.11271 36.2764 4.41813 35.5819C3.72355 34.8873 3.33334 33.9452 3.33334 32.9629V7.03702C3.33334 6.05473 3.72355 5.11268 4.41813 4.4181C5.11271 3.72352 6.05476 3.33331 7.03705 3.33331ZM21.8519 21.8518V10.7407H18.1482V21.8518H21.8519ZM21.8519 29.2592V25.5555H18.1482V29.2592H21.8519Z" fill="black"/>
</svg>
