<svg xmlns="http://www.w3.org/2000/svg" xmlns:xlink="http://www.w3.org/1999/xlink" width="200" zoomAndPan="magnify" viewBox="0 0 150 149.999998" height="200" preserveAspectRatio="xMidYMid meet" version="1.0"><path fill="#000000" d="M 75 109.089844 C 75 105.324219 78.050781 102.273438 81.816406 102.273438 L 122.726562 102.273438 C 126.492188 102.273438 129.546875 105.324219 129.546875 109.089844 C 129.546875 112.855469 126.492188 115.910156 122.726562 115.910156 L 81.816406 115.910156 C 78.050781 115.910156 75 112.855469 75 109.089844 Z M 75 109.089844 " fill-opacity="1" fill-rule="nonzero"/><path fill="#000000" d="M 38.183594 62.726562 C 35.167969 60.46875 30.894531 61.078125 28.636719 64.089844 C 26.378906 67.101562 26.988281 71.375 30 73.636719 L 50 88.636719 L 30 103.636719 C 26.988281 105.894531 26.378906 110.167969 28.636719 113.183594 C 30.894531 116.195312 35.167969 116.804688 38.183594 114.546875 L 65.453125 94.089844 C 67.171875 92.804688 68.183594 90.78125 68.183594 88.636719 C 68.183594 86.488281 67.171875 84.46875 65.453125 83.183594 Z M 38.183594 62.726562 " fill-opacity="1" fill-rule="nonzero"/><path fill="#000000" d="M 60.863281 0 L 89.136719 0 C 101.566406 0 111.589844 0 119.46875 1.058594 C 127.652344 2.160156 134.542969 4.511719 140.015625 9.984375 C 145.488281 15.457031 147.839844 22.347656 148.941406 30.53125 C 150 38.410156 150 48.433594 150 60.863281 L 150 89.136719 C 150 101.566406 150 111.589844 148.941406 119.46875 C 147.839844 127.652344 145.488281 134.542969 140.015625 140.015625 C 134.542969 145.488281 127.652344 147.839844 119.46875 148.941406 C 111.589844 150 101.566406 150 89.136719 150 L 60.863281 150 C 48.433594 150 38.410156 150 30.53125 148.941406 C 22.347656 147.839844 15.457031 145.488281 9.984375 140.015625 C 4.511719 134.542969 2.160156 127.652344 1.058594 119.46875 C 0 111.589844 0 101.566406 0 89.136719 L 0 60.863281 C 0 48.433594 0 38.410156 1.058594 30.53125 C 2.160156 22.347656 4.511719 15.457031 9.984375 9.984375 C 15.457031 4.511719 22.347656 2.160156 30.53125 1.058594 C 38.410156 0 48.433594 0 60.863281 0 Z M 32.347656 14.574219 C 25.675781 15.472656 22.144531 17.109375 19.628906 19.628906 C 17.109375 22.144531 15.472656 25.675781 14.574219 32.347656 C 13.652344 39.214844 13.636719 48.3125 13.636719 61.363281 L 13.636719 88.636719 C 13.636719 101.6875 13.652344 110.785156 14.574219 117.652344 C 15.472656 124.324219 17.109375 127.855469 19.628906 130.371094 C 22.144531 132.886719 25.675781 134.527344 32.347656 135.425781 C 39.214844 136.347656 48.3125 136.363281 61.363281 136.363281 L 88.636719 136.363281 C 101.6875 136.363281 110.785156 136.347656 117.652344 135.425781 C 124.324219 134.527344 127.855469 132.886719 130.371094 130.371094 C 132.886719 127.855469 134.527344 124.324219 135.425781 117.652344 C 136.347656 110.785156 136.363281 101.6875 136.363281 88.636719 L 136.363281 61.363281 C 136.363281 48.3125 136.347656 39.214844 135.425781 32.347656 C 134.527344 25.675781 132.886719 22.144531 130.371094 19.628906 C 127.855469 17.109375 124.324219 15.472656 117.652344 14.574219 C 110.785156 13.652344 101.6875 13.636719 88.636719 13.636719 L 61.363281 13.636719 C 48.3125 13.636719 39.214844 13.652344 32.347656 14.574219 Z M 32.347656 14.574219 " fill-opacity="1" fill-rule="evenodd"/></svg>