<svg xmlns="http://www.w3.org/2000/svg" xmlns:xlink="http://www.w3.org/1999/xlink" width="200" zoomAndPan="magnify" viewBox="0 0 150 149.999998" height="200" preserveAspectRatio="xMidYMid meet" version="1.0"><defs><g/></defs><rect x="-15" width="180" fill="#ffffff" y="-15" height="179.999997" fill-opacity="1"/><rect x="-15" width="180" fill="#1b598e" y="-15" height="179.999997" fill-opacity="1"/><g fill="#ffffff" fill-opacity="1"><g transform="translate(12.660002, 99.979982)"><g><path d="M 27.71875 0.734375 C 23.039062 0.734375 18.921875 -0.234375 15.359375 -2.171875 C 11.804688 -4.117188 9.019531 -7.039062 7 -10.9375 C 4.988281 -14.84375 3.984375 -19.648438 3.984375 -25.359375 C 3.984375 -31.066406 4.988281 -35.867188 7 -39.765625 C 9.019531 -43.671875 11.804688 -46.59375 15.359375 -48.53125 C 18.921875 -50.476562 23.039062 -51.453125 27.71875 -51.453125 C 32.59375 -51.453125 36.734375 -50.492188 40.140625 -48.578125 C 43.554688 -46.671875 45.992188 -43.765625 47.453125 -39.859375 L 40.140625 -35.390625 L 39.265625 -35.421875 C 38.179688 -38.054688 36.707031 -39.945312 34.84375 -41.09375 C 32.976562 -42.238281 30.601562 -42.8125 27.71875 -42.8125 C 23.507812 -42.8125 20.222656 -41.414062 17.859375 -38.625 C 15.503906 -35.84375 14.328125 -31.421875 14.328125 -25.359375 C 14.328125 -19.328125 15.503906 -14.914062 17.859375 -12.125 C 20.222656 -9.332031 23.507812 -7.9375 27.71875 -7.9375 C 34.3125 -7.9375 38.347656 -11.140625 39.828125 -17.546875 L 40.6875 -17.546875 L 48.078125 -13.703125 C 46.691406 -8.890625 44.320312 -5.28125 40.96875 -2.875 C 37.613281 -0.46875 33.195312 0.734375 27.71875 0.734375 Z M 27.71875 0.734375 "/></g></g></g><g fill="#ffffff" fill-opacity="1"><g transform="translate(62.399659, 99.979982)"><g><path d="M 22.859375 -29.34375 L 34.34375 -29.34375 L 34.34375 -21.375 L 22.859375 -21.375 L 22.859375 -9.71875 L 14.53125 -9.71875 L 14.53125 -21.375 L 3.015625 -21.375 L 3.015625 -29.34375 L 14.53125 -29.34375 L 14.53125 -41 L 22.859375 -41 Z M 22.859375 -29.34375 "/></g></g></g><g fill="#ffffff" fill-opacity="1"><g transform="translate(99.825828, 99.979982)"><g><path d="M 22.859375 -29.34375 L 34.34375 -29.34375 L 34.34375 -21.375 L 22.859375 -21.375 L 22.859375 -9.71875 L 14.53125 -9.71875 L 14.53125 -21.375 L 3.015625 -21.375 L 3.015625 -29.34375 L 14.53125 -29.34375 L 14.53125 -41 L 22.859375 -41 Z M 22.859375 -29.34375 "/></g></g></g></svg>