<svg xmlns="http://www.w3.org/2000/svg" xmlns:xlink="http://www.w3.org/1999/xlink" width="179" zoomAndPan="magnify" viewBox="0 0 134.25 149.999998" height="200" preserveAspectRatio="xMidYMid meet" version="1.0"><defs><clipPath id="2c72603bf3"><path d="M 0 0.417969 L 133.503906 0.417969 L 133.503906 149.582031 L 0 149.582031 Z M 0 0.417969 " clip-rule="nonzero"/></clipPath><clipPath id="f33f3d30ea"><path d="M 16.894531 48.566406 L 41.125 48.566406 L 41.125 66.191406 L 16.894531 66.191406 Z M 16.894531 48.566406 " clip-rule="nonzero"/></clipPath></defs><g clip-path="url(#2c72603bf3)"><path fill="#379ad6" d="M 133.484375 0.417969 L 121.707031 133.882812 L 66.753906 149.582031 L 11.796875 133.882812 L 0.0195312 0.417969 Z M 34.566406 86.777344 L 50.269531 86.777344 L 50.652344 96.589844 L 66.753906 102.078125 L 82.851562 96.589844 L 84.019531 78.925781 L 49.484375 78.925781 L 48.6875 63.222656 L 84.816406 63.222656 L 85.980469 47.523438 L 31.820312 47.523438 L 30.640625 31.820312 L 102.480469 31.820312 L 100.515625 63.222656 L 97.757812 108.367188 L 66.753906 118.578125 L 35.746094 108.367188 Z M 34.566406 86.777344 " fill-opacity="1" fill-rule="evenodd"/></g><g clip-path="url(#f33f3d30ea)"><path fill="#379ad6" d="M 16.894531 48.566406 L 41.128906 48.566406 L 41.128906 66.191406 L 16.894531 66.191406 Z M 16.894531 48.566406 " fill-opacity="1" fill-rule="nonzero"/></g></svg>