<svg xmlns="http://www.w3.org/2000/svg" xmlns:xlink="http://www.w3.org/1999/xlink" width="200" zoomAndPan="magnify" viewBox="0 0 150 149.999998" height="200" preserveAspectRatio="xMidYMid meet" version="1.0"><path fill="#379ad6" d="M 12.78125 70.332031 L 28.140625 70.332031 L 28.140625 56.367188 L 12.78125 56.367188 Z M 12.78125 70.332031 " fill-opacity="1" fill-rule="nonzero"/><path fill="#379ad6" d="M 148.027344 69.039062 C 148.375 68.449219 149.558594 65.933594 150 65.015625 L 146.914062 62.917969 L 146.914062 62.925781 C 143.566406 60.644531 135.847656 59.820312 129.921875 60.949219 C 129.15625 55.300781 126.042969 50.386719 120.371094 45.96875 L 117.117188 43.777344 L 114.953125 47.070312 C 110.675781 53.609375 109.519531 64.375 114.097656 71.480469 C 112.078125 72.582031 108.105469 74.089844 102.847656 73.996094 L 1.816406 73.996094 C -0.203125 85.941406 3.167969 101.460938 12.042969 112.117188 C 20.660156 122.441406 33.582031 127.6875 50.480469 127.6875 C 87.0625 127.6875 114.136719 110.640625 126.804688 79.667969 C 131.777344 79.761719 142.519531 79.691406 148.027344 69.039062 Z M 148.027344 69.039062 " fill-opacity="1" fill-rule="nonzero"/><path fill="#379ad6" d="M 30.910156 56.367188 L 46.269531 56.367188 L 46.269531 70.332031 L 30.910156 70.332031 Z M 30.910156 56.367188 " fill-opacity="1" fill-rule="nonzero"/><path fill="#379ad6" d="M 49.066406 56.367188 L 64.425781 56.367188 L 64.425781 70.332031 L 49.066406 70.332031 Z M 49.066406 56.367188 " fill-opacity="1" fill-rule="nonzero"/><path fill="#379ad6" d="M 85.386719 56.367188 L 100.746094 56.367188 L 100.746094 70.332031 L 85.386719 70.332031 Z M 85.386719 56.367188 " fill-opacity="1" fill-rule="nonzero"/><path fill="#379ad6" d="M 30.910156 39.410156 L 46.269531 39.410156 L 46.269531 53.542969 L 30.910156 53.542969 Z M 30.910156 39.410156 " fill-opacity="1" fill-rule="nonzero"/><path fill="#379ad6" d="M 67.214844 56.390625 L 82.574219 56.390625 L 82.574219 70.359375 L 67.214844 70.359375 Z M 67.214844 56.390625 " fill-opacity="1" fill-rule="nonzero"/><path fill="#379ad6" d="M 67.214844 39.410156 L 82.574219 39.410156 L 82.574219 53.542969 L 67.214844 53.542969 Z M 67.214844 39.410156 " fill-opacity="1" fill-rule="nonzero"/><path fill="#379ad6" d="M 67.214844 22.3125 L 82.574219 22.3125 L 82.574219 36.589844 L 67.214844 36.589844 Z M 67.214844 22.3125 " fill-opacity="1" fill-rule="nonzero"/><path fill="#379ad6" d="M 49.066406 39.410156 L 64.425781 39.410156 L 64.425781 53.542969 L 49.066406 53.542969 Z M 49.066406 39.410156 " fill-opacity="1" fill-rule="nonzero"/></svg>