<svg xmlns="http://www.w3.org/2000/svg" xmlns:xlink="http://www.w3.org/1999/xlink" width="200" zoomAndPan="magnify" viewBox="0 0 150 149.999998" height="200" preserveAspectRatio="xMidYMid meet" version="1.0"><defs><clipPath id="3e8ae28566"><path d="M 0 9.375 L 150 9.375 L 150 140.625 L 0 140.625 Z M 0 9.375 " clip-rule="nonzero"/></clipPath></defs><path fill="#000000" d="M 75.828125 40.609375 L 75.832031 40.613281 L 75.839844 40.613281 Z M 75.828125 40.609375 " fill-opacity="1" fill-rule="nonzero"/><path fill="#000000" d="M 73.539062 109.796875 L 73.53125 109.789062 L 73.527344 109.789062 Z M 73.539062 109.796875 " fill-opacity="1" fill-rule="nonzero"/><path fill="#000000" d="M 148.394531 68.878906 L 148.40625 68.910156 L 148.414062 68.910156 Z M 148.394531 68.878906 " fill-opacity="1" fill-rule="nonzero"/><path fill="#8080f2" d="M 45.507812 56.101562 L 73.832031 39.75 C 74.539062 39.339844 75.410156 39.339844 76.121094 39.75 L 104.441406 56.101562 C 105.148438 56.511719 105.585938 57.265625 105.585938 58.085938 L 105.585938 90.792969 C 105.585938 91.613281 105.148438 92.367188 104.441406 92.777344 L 76.121094 109.132812 C 75.410156 109.542969 74.539062 109.542969 73.832031 109.132812 L 45.507812 92.777344 C 44.800781 92.367188 44.363281 91.613281 44.363281 90.792969 L 44.363281 58.085938 C 44.363281 57.265625 44.800781 56.511719 45.507812 56.101562 Z M 45.507812 56.101562 " fill-opacity="1" fill-rule="nonzero"/><g clip-path="url(#3e8ae28566)"><path fill="#4b32c3" d="M 148.414062 71.757812 L 114.535156 12.820312 C 113.304688 10.6875 111.035156 9.121094 108.570312 9.121094 L 40.8125 9.121094 C 38.347656 9.121094 36.078125 10.695312 34.847656 12.820312 L 0.972656 71.628906 C -0.261719 73.761719 -0.261719 76.449219 0.972656 78.582031 L 34.847656 137.035156 C 36.078125 139.167969 38.347656 140.257812 40.8125 140.257812 L 108.570312 140.257812 C 111.035156 140.257812 113.304688 139.199219 114.535156 137.066406 L 148.414062 78.515625 C 149.636719 76.386719 149.636719 73.894531 148.414062 71.757812 Z M 120.359375 100.097656 C 120.359375 100.964844 119.835938 101.765625 119.082031 102.203125 L 75.933594 127.101562 C 75.175781 127.539062 74.246094 127.539062 73.496094 127.101562 L 30.304688 102.207031 C 29.554688 101.773438 29.03125 100.96875 29.03125 100.105469 L 29.03125 50.304688 C 29.03125 49.441406 29.546875 48.636719 30.300781 48.203125 L 73.445312 23.308594 C 74.199219 22.875 75.128906 22.875 75.882812 23.308594 L 119.070312 48.207031 C 119.824219 48.644531 120.351562 49.441406 120.351562 50.3125 Z M 120.359375 100.097656 " fill-opacity="1" fill-rule="nonzero"/></g></svg>