<svg xmlns="http://www.w3.org/2000/svg" xmlns:xlink="http://www.w3.org/1999/xlink" width="200" zoomAndPan="magnify" viewBox="0 0 150 149.999998" height="200" preserveAspectRatio="xMidYMid meet" version="1.0"><path fill="#f03c2e" d="M 147.167969 68.320312 L 81.679688 2.832031 C 81.230469 2.382812 80.742188 1.980469 80.214844 1.628906 C 79.6875 1.277344 79.132812 0.980469 78.546875 0.738281 C 77.960938 0.492188 77.355469 0.3125 76.734375 0.1875 C 76.113281 0.0625 75.484375 0 74.851562 0 C 74.214844 0 73.585938 0.0625 72.964844 0.1875 C 72.34375 0.3125 71.738281 0.492188 71.152344 0.738281 C 70.566406 0.980469 70.011719 1.277344 69.484375 1.628906 C 68.957031 1.980469 68.46875 2.382812 68.019531 2.832031 L 54.425781 16.425781 L 71.675781 33.675781 C 75.6875 32.269531 80.28125 33.230469 83.480469 36.425781 C 84.242188 37.1875 84.882812 38.042969 85.402344 38.984375 C 85.921875 39.925781 86.304688 40.921875 86.546875 41.972656 C 86.785156 43.023438 86.878906 44.085938 86.820312 45.160156 C 86.761719 46.234375 86.554688 47.28125 86.203125 48.300781 L 102.828125 64.925781 C 106.851562 63.539062 111.492188 64.433594 114.703125 67.65625 C 115.238281 68.1875 115.714844 68.769531 116.132812 69.398438 C 116.554688 70.023438 116.90625 70.6875 117.195312 71.386719 C 117.484375 72.082031 117.703125 72.800781 117.851562 73.542969 C 118 74.28125 118.074219 75.03125 118.074219 75.785156 C 118.074219 76.539062 118 77.289062 117.851562 78.027344 C 117.707031 78.769531 117.488281 79.488281 117.199219 80.1875 C 116.910156 80.882812 116.554688 81.546875 116.136719 82.175781 C 115.714844 82.800781 115.238281 83.382812 114.703125 83.917969 C 114.171875 84.449219 113.589844 84.929688 112.960938 85.347656 C 112.332031 85.765625 111.671875 86.121094 110.972656 86.410156 C 110.277344 86.699219 109.554688 86.917969 108.816406 87.0625 C 108.074219 87.210938 107.328125 87.285156 106.570312 87.285156 C 105.816406 87.28125 105.070312 87.210938 104.328125 87.0625 C 103.589844 86.914062 102.871094 86.695312 102.171875 86.40625 C 101.472656 86.117188 100.8125 85.761719 100.183594 85.34375 C 99.554688 84.921875 98.976562 84.445312 98.441406 83.910156 C 95.066406 80.535156 94.234375 75.566406 95.9375 71.410156 L 80.433594 55.902344 L 80.433594 96.707031 C 81.566406 97.269531 82.582031 97.992188 83.480469 98.882812 C 84.011719 99.417969 84.488281 99.996094 84.910156 100.625 C 85.328125 101.253906 85.683594 101.914062 85.972656 102.613281 C 86.261719 103.308594 86.476562 104.027344 86.625 104.769531 C 86.773438 105.507812 86.847656 106.257812 86.847656 107.011719 C 86.847656 107.765625 86.773438 108.511719 86.625 109.253906 C 86.476562 109.992188 86.261719 110.710938 85.972656 111.410156 C 85.683594 112.105469 85.328125 112.769531 84.910156 113.398438 C 84.488281 114.023438 84.011719 114.605469 83.480469 115.140625 C 82.945312 115.671875 82.367188 116.148438 81.738281 116.570312 C 81.109375 116.988281 80.449219 117.34375 79.75 117.628906 C 79.054688 117.917969 78.335938 118.136719 77.59375 118.285156 C 76.855469 118.433594 76.105469 118.503906 75.351562 118.503906 C 74.597656 118.503906 73.847656 118.433594 73.109375 118.285156 C 72.367188 118.136719 71.648438 117.917969 70.953125 117.628906 C 70.253906 117.34375 69.59375 116.988281 68.964844 116.570312 C 68.335938 116.148438 67.757812 115.671875 67.222656 115.140625 C 66.6875 114.605469 66.210938 114.023438 65.792969 113.398438 C 65.371094 112.769531 65.019531 112.109375 64.726562 111.410156 C 64.4375 110.714844 64.222656 109.996094 64.074219 109.253906 C 63.925781 108.511719 63.851562 107.765625 63.851562 107.011719 C 63.851562 106.257812 63.925781 105.507812 64.074219 104.769531 C 64.222656 104.027344 64.4375 103.308594 64.726562 102.609375 C 65.019531 101.914062 65.371094 101.25 65.792969 100.625 C 66.210938 99.996094 66.6875 99.417969 67.222656 98.882812 C 68.335938 97.777344 69.566406 96.9375 70.988281 96.375 L 70.988281 55.191406 C 69.617188 54.628906 68.335938 53.796875 67.222656 52.683594 C 66.417969 51.875 65.746094 50.96875 65.207031 49.964844 C 64.671875 48.957031 64.292969 47.894531 64.070312 46.777344 C 63.851562 45.65625 63.796875 44.53125 63.914062 43.394531 C 64.027344 42.261719 64.308594 41.167969 64.75 40.117188 L 47.734375 23.109375 L 2.828125 67.96875 C 2.378906 68.417969 1.976562 68.90625 1.625 69.433594 C 1.269531 69.960938 0.972656 70.515625 0.730469 71.101562 C 0.488281 71.6875 0.304688 72.292969 0.179688 72.914062 C 0.0546875 73.539062 -0.00390625 74.167969 -0.00390625 74.800781 C -0.00390625 75.433594 0.0546875 76.0625 0.179688 76.6875 C 0.304688 77.308594 0.488281 77.914062 0.730469 78.5 C 0.972656 79.085938 1.269531 79.640625 1.625 80.167969 C 1.976562 80.695312 2.378906 81.183594 2.828125 81.632812 L 68.320312 147.117188 C 68.769531 147.566406 69.257812 147.964844 69.785156 148.320312 C 70.3125 148.671875 70.867188 148.96875 71.453125 149.210938 C 72.039062 149.453125 72.644531 149.636719 73.265625 149.761719 C 73.886719 149.886719 74.515625 149.945312 75.148438 149.945312 C 75.785156 149.945312 76.414062 149.886719 77.035156 149.761719 C 77.65625 149.636719 78.261719 149.453125 78.847656 149.210938 C 79.433594 148.96875 79.988281 148.671875 80.515625 148.320312 C 81.042969 147.964844 81.53125 147.566406 81.980469 147.117188 L 147.167969 82.03125 C 147.617188 81.582031 148.019531 81.09375 148.371094 80.566406 C 148.722656 80.039062 149.023438 79.484375 149.265625 78.898438 C 149.507812 78.3125 149.691406 77.707031 149.816406 77.085938 C 149.9375 76.460938 150 75.832031 150 75.199219 C 150 74.566406 149.9375 73.9375 149.816406 73.3125 C 149.691406 72.691406 149.507812 72.085938 149.265625 71.5 C 149.023438 70.914062 148.722656 70.359375 148.371094 69.832031 C 148.019531 69.304688 147.617188 68.816406 147.167969 68.367188 " fill-opacity="1" fill-rule="nonzero"/></svg>