<svg xmlns="http://www.w3.org/2000/svg" xmlns:xlink="http://www.w3.org/1999/xlink" width="200" zoomAndPan="magnify" viewBox="0 0 150 149.999998" height="200" preserveAspectRatio="xMidYMid meet" version="1.0"><defs><clipPath id="e1771de1a9"><path d="M 47 59 L 103 59 L 103 144.136719 L 47 144.136719 Z M 47 59 " clip-rule="nonzero"/></clipPath><clipPath id="f99a8f6534"><path d="M 9 59 L 76 59 L 76 144.136719 L 9 144.136719 Z M 9 59 " clip-rule="nonzero"/></clipPath><clipPath id="cbe432c652"><path d="M 0 59 L 76 59 L 76 144.136719 L 0 144.136719 Z M 0 59 " clip-rule="nonzero"/></clipPath><clipPath id="cb5cb5185e"><path d="M 9 6.136719 L 48 6.136719 L 48 60 L 9 60 Z M 9 6.136719 " clip-rule="nonzero"/></clipPath><clipPath id="1f2b5bb6ac"><path d="M 75 59 L 141 59 L 141 144.136719 L 75 144.136719 Z M 75 59 " clip-rule="nonzero"/></clipPath><clipPath id="89625cd7a0"><path d="M 75 59 L 150 59 L 150 144.136719 L 75 144.136719 Z M 75 59 " clip-rule="nonzero"/></clipPath><clipPath id="171d9c3e7c"><path d="M 102 6.136719 L 141 6.136719 L 141 60 L 102 60 Z M 102 6.136719 " clip-rule="nonzero"/></clipPath></defs><g clip-path="url(#e1771de1a9)"><path fill="#e24329" d="M 75.011719 144.117188 L 102.410156 59.632812 L 47.621094 59.636719 L 75.011719 144.121094 Z M 75.011719 144.117188 " fill-opacity="1" fill-rule="nonzero"/></g><g clip-path="url(#f99a8f6534)"><path fill="#fc6d26" d="M 75.011719 144.117188 L 47.621094 59.632812 L 9.226562 59.636719 L 75.007812 144.121094 Z M 75.011719 144.117188 " fill-opacity="1" fill-rule="nonzero"/></g><g clip-path="url(#cbe432c652)"><path fill="#fca326" d="M 9.226562 59.636719 L 0.902344 85.3125 C 0.140625 87.652344 0.972656 90.21875 2.960938 91.664062 L 75.015625 144.117188 L 9.230469 59.632812 L 9.230469 59.636719 Z M 9.226562 59.636719 " fill-opacity="1" fill-rule="nonzero"/></g><g clip-path="url(#cb5cb5185e)"><path fill="#e24329" d="M 9.226562 59.636719 L 47.621094 59.636719 L 31.121094 8.753906 C 30.269531 6.132812 26.574219 6.136719 25.726562 8.753906 Z M 9.226562 59.636719 " fill-opacity="1" fill-rule="nonzero"/></g><g clip-path="url(#1f2b5bb6ac)"><path fill="#fc6d26" d="M 75.011719 144.117188 L 102.410156 59.632812 L 140.800781 59.636719 L 75.011719 144.121094 Z M 75.011719 144.117188 " fill-opacity="1" fill-rule="nonzero"/></g><g clip-path="url(#89625cd7a0)"><path fill="#fca326" d="M 140.800781 59.636719 L 149.128906 85.3125 C 149.882812 87.652344 149.054688 90.21875 147.070312 91.664062 L 75.011719 144.117188 L 140.800781 59.632812 Z M 140.800781 59.636719 " fill-opacity="1" fill-rule="nonzero"/></g><g clip-path="url(#171d9c3e7c)"><path fill="#e24329" d="M 140.800781 59.636719 L 102.410156 59.636719 L 118.910156 8.753906 C 119.757812 6.132812 123.457031 6.136719 124.300781 8.753906 Z M 140.800781 59.636719 " fill-opacity="1" fill-rule="nonzero"/></g></svg>