<svg xmlns="http://www.w3.org/2000/svg" xmlns:xlink="http://www.w3.org/1999/xlink" width="529" zoomAndPan="magnify" viewBox="0 0 396.75 149.999998" height="200" preserveAspectRatio="xMidYMid meet" version="1.0"><defs><clipPath id="41dd604869"><path d="M 0 0.046875 L 255 0.046875 L 255 148 L 0 148 Z M 0 0.046875 " clip-rule="nonzero"/></clipPath><clipPath id="293615b50f"><path d="M 243 2 L 396.5 2 L 396.5 149 L 243 149 Z M 243 2 " clip-rule="nonzero"/></clipPath></defs><g clip-path="url(#41dd604869)"><path fill="#00acd7" d="M 30.453125 45.507812 C 29.679688 45.507812 29.488281 45.121094 29.875 44.546875 L 33.921875 39.355469 C 34.308594 38.78125 35.269531 38.394531 36.039062 38.394531 L 104.847656 38.394531 C 105.621094 38.394531 105.8125 38.972656 105.425781 39.550781 L 102.148438 44.546875 C 101.761719 45.121094 100.800781 45.699219 100.222656 45.699219 L 30.449219 45.507812 Z M 1.347656 63.1875 C 0.578125 63.1875 0.386719 62.804688 0.769531 62.226562 L 4.816406 57.039062 C 5.203125 56.460938 6.167969 56.078125 6.9375 56.078125 L 94.828125 56.078125 C 95.601562 56.078125 95.984375 56.65625 95.792969 57.230469 L 94.25 61.84375 C 94.054688 62.613281 93.285156 62.996094 92.515625 62.996094 Z M 47.992188 80.871094 C 47.21875 80.871094 47.027344 80.292969 47.414062 79.71875 L 50.113281 74.914062 C 50.5 74.335938 51.269531 73.757812 52.039062 73.757812 L 90.585938 73.757812 C 91.359375 73.757812 91.746094 74.335938 91.746094 75.105469 L 91.359375 79.714844 C 91.359375 80.484375 90.585938 81.058594 90.007812 81.058594 L 47.992188 80.867188 Z M 248.0625 42.046875 L 215.679688 50.503906 C 212.789062 51.273438 212.597656 51.464844 210.089844 48.582031 C 207.199219 45.3125 205.082031 43.183594 201.03125 41.277344 C 188.890625 35.320312 177.132812 37.050781 166.144531 44.160156 C 153.039062 52.617188 146.292969 65.113281 146.484375 80.679688 C 146.679688 96.054688 157.28125 108.742188 172.507812 110.855469 C 185.613281 112.585938 196.597656 107.972656 205.273438 98.171875 C 207.007812 96.058594 208.550781 93.75 210.476562 91.0625 L 173.273438 91.0625 C 169.226562 91.0625 168.261719 88.5625 169.609375 85.292969 C 172.117188 79.335938 176.742188 69.339844 179.441406 64.34375 C 180.019531 63.191406 181.367188 61.269531 184.257812 61.269531 L 254.417969 61.269531 C 254.03125 66.457031 254.03125 71.648438 253.261719 76.835938 C 251.144531 90.675781 245.9375 103.359375 237.457031 114.507812 C 223.582031 132.765625 205.464844 144.109375 182.527344 147.183594 C 163.636719 149.683594 146.097656 146.03125 130.675781 134.5 C 116.402344 123.734375 108.324219 109.507812 106.203125 91.828125 C 103.699219 70.878906 109.867188 52.042969 122.589844 35.515625 C 136.273438 17.640625 154.390625 6.300781 176.558594 2.265625 C 194.675781 -1.003906 212.019531 1.109375 227.632812 11.679688 C 237.847656 18.40625 245.171875 27.632812 249.992188 38.78125 C 251.152344 40.511719 250.378906 41.472656 248.066406 42.050781 Z M 248.0625 42.046875 " fill-opacity="1" fill-rule="nonzero"/></g><g clip-path="url(#293615b50f)"><path fill="#00acd7" d="M 311.859375 148.332031 C 294.324219 147.949219 278.324219 142.9375 264.832031 131.417969 C 253.460938 121.613281 246.328125 109.121094 244.015625 94.320312 C 240.546875 72.601562 246.523438 53.382812 259.628906 36.277344 C 273.703125 17.824219 290.660156 8.214844 313.597656 4.179688 C 333.257812 0.71875 351.761719 2.644531 368.53125 13.984375 C 383.757812 24.359375 393.199219 38.394531 395.707031 56.84375 C 398.984375 82.789062 391.46875 103.933594 373.542969 122 C 360.820312 134.875 345.207031 142.949219 327.285156 146.601562 C 322.078125 147.5625 316.875 147.753906 311.867188 148.332031 Z M 357.734375 70.683594 C 357.542969 68.1875 357.542969 66.261719 357.15625 64.34375 C 353.6875 45.3125 336.148438 34.550781 317.835938 38.78125 C 299.910156 42.816406 288.347656 54.152344 284.105469 72.222656 C 280.636719 87.214844 287.960938 102.402344 301.839844 108.550781 C 312.441406 113.160156 323.039062 112.585938 333.257812 107.394531 C 348.484375 99.53125 356.769531 87.214844 357.734375 70.683594 Z M 357.734375 70.683594 " fill-opacity="1" fill-rule="nonzero"/></g></svg>