<svg xmlns="http://www.w3.org/2000/svg" xmlns:xlink="http://www.w3.org/1999/xlink" width="200" zoomAndPan="magnify" viewBox="0 0 150 149.999998" height="200" preserveAspectRatio="xMidYMid meet" version="1.0"><path fill="#4e7896" d="M 56.160156 114.890625 C 56.160156 114.890625 50.4375 118.367188 60.140625 119.359375 C 71.820312 120.84375 78.039062 120.597656 90.964844 118.121094 C 93.570312 119.710938 96.304688 121.035156 99.171875 122.089844 C 70.085938 134.5 33.28125 121.347656 56.15625 114.890625 Z M 52.4375 98.761719 C 52.4375 98.761719 46.222656 103.476562 55.917969 104.476562 C 68.597656 105.714844 78.542969 105.960938 95.703125 102.492188 C 97.394531 104.207031 99.382812 105.445312 101.667969 106.210938 C 66.613281 116.632812 27.328125 107.207031 52.4375 98.769531 Z M 121.058594 127.042969 C 121.058594 127.042969 125.285156 130.519531 116.335938 133.25 C 99.675781 138.21875 46.472656 139.703125 31.554688 133.25 C 26.332031 131.019531 36.277344 127.792969 39.464844 127.296875 C 42.699219 126.550781 44.445312 126.550781 44.445312 126.550781 C 38.71875 122.582031 6.402344 134.738281 28.035156 138.210938 C 87.457031 147.886719 136.4375 133.992188 121.023438 127.042969 Z M 58.851562 81.886719 C 58.851562 81.886719 31.75 88.34375 49.152344 90.570312 C 56.613281 91.566406 71.277344 91.3125 84.953125 90.324219 C 96.140625 89.332031 107.335938 87.351562 107.335938 87.351562 C 107.335938 87.351562 103.359375 89.089844 100.621094 90.828125 C 73.027344 98.023438 20.066406 94.796875 35.234375 87.351562 C 48.160156 81.148438 58.855469 81.894531 58.855469 81.894531 Z M 107.335938 108.933594 C 135.183594 94.539062 122.253906 80.652344 113.300781 82.382812 C 111.070312 82.878906 110.066406 83.378906 110.066406 83.378906 C 110.066406 83.378906 110.8125 81.890625 112.554688 81.394531 C 130.207031 75.191406 144.128906 100.003906 106.828125 109.675781 C 106.828125 109.675781 107.078125 109.429688 107.328125 108.933594 Z M 61.59375 148.136719 C 88.445312 149.875 129.472656 147.144531 130.464844 134.484375 C 130.464844 134.484375 128.476562 139.453125 108.335938 143.167969 C 85.460938 147.386719 57.117188 146.882812 40.460938 144.164062 C 40.460938 144.164062 43.941406 147.132812 61.59375 148.132812 Z M 61.59375 148.136719 " fill-opacity="1" fill-rule="nonzero"/><path fill="#f58219" d="M 90.472656 0.00390625 C 90.472656 0.00390625 105.890625 15.636719 75.804688 39.207031 C 51.6875 58.3125 70.339844 69.230469 75.804688 81.640625 C 61.632812 68.984375 51.441406 57.816406 58.402344 47.402344 C 68.59375 32.011719 96.691406 24.613281 90.472656 0.00390625 Z M 82.5625 71.21875 C 89.777344 79.40625 80.574219 86.851562 80.574219 86.851562 C 80.574219 86.851562 98.976562 77.425781 90.519531 65.757812 C 82.8125 54.59375 76.839844 49.132812 109.164062 30.523438 C 109.164062 30.523438 58.199219 43.179688 82.5625 71.21875 Z M 82.5625 71.21875 " fill-opacity="1" fill-rule="nonzero"/></svg>