<svg xmlns="http://www.w3.org/2000/svg" xmlns:xlink="http://www.w3.org/1999/xlink" width="200" zoomAndPan="magnify" viewBox="0 0 150 149.999998" height="200" preserveAspectRatio="xMidYMid meet" version="1.0"><defs><g/></defs><g fill="#000000" fill-opacity="1"><g transform="translate(50.484373, 118.790745)"><g><path d="M 17.765625 0.734375 C 13.460938 0.734375 9.890625 -0.078125 7.046875 -1.703125 C 4.203125 -3.335938 2.128906 -5.535156 0.828125 -8.296875 L 6.484375 -15.15625 L 7.359375 -15.15625 C 8.273438 -12.9375 9.582031 -11.1875 11.28125 -9.90625 C 12.988281 -8.625 14.960938 -7.984375 17.203125 -7.984375 C 19.722656 -7.984375 21.597656 -8.71875 22.828125 -10.1875 C 24.054688 -11.65625 24.671875 -14.039062 24.671875 -17.34375 L 24.671875 -50.71875 L 34.65625 -50.71875 L 34.65625 -17.171875 C 34.65625 -11.046875 33.257812 -6.53125 30.46875 -3.625 C 27.6875 -0.71875 23.453125 0.734375 17.765625 0.734375 Z M 17.765625 0.734375 "/></g></g></g><g fill="#000000" fill-opacity="1"><g transform="translate(91.413798, 118.790745)"><g><path d="M 22.484375 0.734375 C 18.960938 0.734375 15.832031 0.300781 13.09375 -0.5625 C 10.351562 -1.4375 8.066406 -2.578125 6.234375 -3.984375 C 4.410156 -5.398438 3.015625 -6.953125 2.046875 -8.640625 L 7.5625 -15.375 L 8.4375 -15.375 C 9.957031 -13.101562 11.890625 -11.296875 14.234375 -9.953125 C 16.585938 -8.609375 19.335938 -7.9375 22.484375 -7.9375 C 25.160156 -7.9375 27.179688 -8.503906 28.546875 -9.640625 C 29.910156 -10.773438 30.59375 -12.335938 30.59375 -14.328125 C 30.59375 -15.523438 30.375 -16.53125 29.9375 -17.34375 C 29.5 -18.15625 28.769531 -18.847656 27.75 -19.421875 C 26.726562 -20.003906 25.351562 -20.503906 23.625 -20.921875 L 17.109375 -22.40625 C 12.546875 -23.445312 9.148438 -25.175781 6.921875 -27.59375 C 4.691406 -30.007812 3.578125 -33.148438 3.578125 -37.015625 C 3.578125 -39.878906 4.289062 -42.398438 5.71875 -44.578125 C 7.15625 -46.753906 9.242188 -48.441406 11.984375 -49.640625 C 14.722656 -50.847656 18.003906 -51.453125 21.828125 -51.453125 C 25.734375 -51.453125 29.078125 -50.9375 31.859375 -49.90625 C 34.648438 -48.875 37.003906 -47.296875 38.921875 -45.171875 L 33.96875 -38.375 L 33.09375 -38.375 C 31.65625 -39.875 30.007812 -41 28.15625 -41.75 C 26.3125 -42.5 24.203125 -42.875 21.828125 -42.875 C 19.066406 -42.875 16.96875 -42.390625 15.53125 -41.421875 C 14.101562 -40.453125 13.390625 -39.109375 13.390625 -37.390625 C 13.390625 -35.796875 13.890625 -34.523438 14.890625 -33.578125 C 15.898438 -32.628906 17.644531 -31.890625 20.125 -31.359375 L 26.78125 -29.96875 C 31.707031 -28.925781 35.28125 -27.160156 37.5 -24.671875 C 39.71875 -22.191406 40.828125 -18.953125 40.828125 -14.953125 C 40.828125 -11.785156 40.144531 -9.023438 38.78125 -6.671875 C 37.414062 -4.328125 35.359375 -2.503906 32.609375 -1.203125 C 29.859375 0.0859375 26.484375 0.734375 22.484375 0.734375 Z M 22.484375 0.734375 "/></g></g></g></svg>