<svg xmlns="http://www.w3.org/2000/svg" xmlns:xlink="http://www.w3.org/1999/xlink" width="200" zoomAndPan="magnify" viewBox="0 0 150 149.999998" height="200" preserveAspectRatio="xMidYMid meet" version="1.0"><path fill="#99415b" d="M 101.980469 71.105469 C 101.980469 71.09375 101.980469 71.074219 101.980469 71.050781 C 101.980469 62.3125 108.011719 54.960938 116.167969 52.898438 L 116.300781 52.867188 L 116.300781 52.855469 C 116.667969 52.78125 116.976562 52.707031 117.355469 52.644531 L 117.574219 52.644531 C 117.886719 52.554688 118.179688 52.554688 118.488281 52.480469 L 118.789062 52.480469 C 119.09375 52.480469 119.320312 52.40625 119.613281 52.40625 L 122.550781 52.40625 C 122.851562 52.40625 123.082031 52.480469 123.304688 52.480469 C 123.457031 52.480469 123.523438 52.480469 123.6875 52.554688 C 123.980469 52.632812 124.207031 52.632812 124.511719 52.707031 C 124.585938 52.707031 124.664062 52.707031 124.820312 52.78125 L 125.867188 52.992188 L 125.945312 52.992188 C 126.25 53.082031 126.550781 53.15625 126.84375 53.304688 C 126.917969 53.304688 126.992188 53.382812 127.144531 53.382812 C 127.375 53.457031 127.675781 53.53125 127.90625 53.667969 C 127.980469 53.667969 128.054688 53.742188 128.125 53.742188 C 128.429688 53.894531 128.730469 53.96875 129.039062 54.117188 L 129.113281 54.117188 C 129.480469 54.257812 129.804688 54.445312 130.101562 54.65625 L 130.085938 54.644531 L 130.164062 54.644531 C 130.46875 54.792969 130.769531 55.011719 131.074219 55.164062 C 131.148438 55.164062 131.148438 55.238281 131.210938 55.238281 C 131.519531 55.386719 131.757812 55.613281 132.050781 55.761719 L 132.125 55.835938 C 133.023438 56.507812 133.863281 57.257812 134.6875 58 L 134.761719 58.074219 C 137.980469 61.445312 139.96875 65.992188 139.96875 71.019531 C 139.96875 71.042969 139.96875 71.0625 139.96875 71.09375 C 139.613281 81.230469 131.25 89.3125 120.976562 89.3125 C 110.699219 89.3125 102.335938 81.230469 101.980469 71.125 Z M 101.980469 71.105469 " fill-opacity="1" fill-rule="nonzero"/><path fill="#99415b" d="M 70.136719 49.792969 L 70.289062 49.757812 L 70.289062 49.742188 C 70.71875 49.65625 71.070312 49.570312 71.507812 49.492188 L 71.757812 49.492188 C 72.117188 49.394531 72.460938 49.394531 72.8125 49.304688 L 73.164062 49.304688 C 73.511719 49.304688 73.78125 49.21875 74.117188 49.21875 L 77.519531 49.21875 C 77.867188 49.21875 78.132812 49.304688 78.394531 49.304688 C 78.570312 49.304688 78.644531 49.304688 78.832031 49.394531 C 79.167969 49.480469 79.429688 49.480469 79.78125 49.570312 C 79.867188 49.570312 79.957031 49.570312 80.132812 49.65625 L 81.34375 49.90625 L 81.429688 49.90625 C 81.75 49.992188 82.070312 50.085938 82.382812 50.238281 L 98.0625 20.289062 L 113.667969 50.398438 C 114.25 50.199219 114.8125 49.949219 115.414062 49.800781 L 115.5625 49.761719 L 115.5625 49.742188 C 115.992188 49.65625 116.335938 49.570312 116.78125 49.492188 L 117.03125 49.492188 C 117.394531 49.394531 117.738281 49.394531 118.085938 49.304688 L 118.4375 49.304688 C 118.789062 49.304688 119.054688 49.21875 119.394531 49.21875 L 122.792969 49.21875 C 123.144531 49.21875 123.40625 49.304688 123.675781 49.304688 C 123.851562 49.304688 123.925781 49.304688 124.113281 49.394531 C 124.449219 49.480469 124.710938 49.480469 125.0625 49.570312 C 125.148438 49.570312 125.238281 49.570312 125.414062 49.65625 L 126.625 49.90625 L 126.664062 49.90625 L 144.6875 4.6875 L 51.394531 4.6875 L 69.445312 50.03125 C 69.675781 49.960938 69.894531 49.851562 70.136719 49.792969 Z M 70.136719 49.792969 " fill-opacity="1" fill-rule="nonzero"/><path fill="#99415b" d="M 120.976562 91.914062 C 109.09375 91.914062 99.425781 82.570312 99.011719 70.882812 L 99.011719 70.863281 L 97.625 71.101562 C 97.074219 82.699219 87.488281 91.914062 75.695312 91.914062 C 71.074219 91.914062 66.8125 90.46875 63.273438 88.054688 C 61.5 90.355469 59.636719 92.480469 57.601562 94.386719 L 57.574219 94.414062 C 53.054688 98.6875 47.726562 102.164062 41.851562 104.582031 L 41.511719 104.707031 C 36.257812 101.1875 33.980469 94.980469 36.039062 89.417969 L 16.375 84.511719 C 16.074219 85.117188 15.761719 85.730469 15.457031 86.382812 C 12.511719 92.375 9.1875 99.148438 7.914062 106.75 C 5.375 121.949219 9.53125 132.585938 19.5625 139.492188 C 24.710938 143.132812 31.125 145.3125 38.054688 145.3125 C 38.074219 145.3125 38.09375 145.3125 38.113281 145.3125 C 49.625 145.3125 61.3125 139.582031 72.613281 134.019531 C 80.667969 130.070312 88.988281 127.507812 97.175781 125.507812 C 100.199219 124.769531 103.351562 124.335938 106.675781 123.855469 C 113.417969 122.898438 120.382812 121.90625 126.636719 118.292969 C 133.75 114.199219 138.832031 107.292969 140.363281 99.148438 L 140.386719 98.976562 C 141.34375 93.550781 140.550781 88.132812 138.488281 83.1875 C 134.476562 88.46875 128.148438 91.914062 120.976562 91.914062 Z M 120.976562 91.914062 " fill-opacity="1" fill-rule="nonzero"/><path fill="#99415b" d="M 30.1875 57.210938 C 38.804688 57.210938 45.8125 64.226562 45.8125 72.835938 C 45.8125 81.449219 38.804688 88.460938 30.195312 88.460938 C 21.582031 88.460938 14.5625 81.457031 14.5625 72.84375 C 14.5625 64.238281 21.574219 57.210938 30.1875 57.210938 Z M 30.1875 57.210938 " fill-opacity="1" fill-rule="nonzero"/><path fill="#99415b" d="M 56.699219 70.804688 C 56.699219 70.792969 56.699219 70.773438 56.699219 70.75 C 56.699219 62.011719 62.730469 54.664062 70.886719 52.601562 L 71.019531 52.570312 L 71.019531 52.554688 C 71.386719 52.480469 71.695312 52.40625 72.074219 52.34375 L 72.292969 52.34375 C 72.605469 52.257812 72.898438 52.257812 73.207031 52.179688 L 73.507812 52.179688 C 73.8125 52.179688 74.039062 52.105469 74.332031 52.105469 L 77.269531 52.105469 C 77.570312 52.105469 77.800781 52.179688 78.023438 52.179688 C 78.175781 52.179688 78.242188 52.179688 78.40625 52.257812 C 78.699219 52.332031 78.925781 52.332031 79.230469 52.40625 C 79.304688 52.40625 79.382812 52.40625 79.539062 52.480469 L 80.585938 52.695312 L 80.664062 52.695312 C 80.96875 52.78125 81.269531 52.855469 81.5625 53.007812 C 81.636719 53.007812 81.710938 53.082031 81.863281 53.082031 C 82.09375 53.15625 82.394531 53.230469 82.625 53.367188 C 82.699219 53.367188 82.773438 53.445312 82.84375 53.445312 C 83.148438 53.59375 83.449219 53.667969 83.757812 53.820312 L 83.832031 53.820312 C 84.199219 53.957031 84.523438 54.144531 84.820312 54.355469 L 84.804688 54.34375 L 84.882812 54.34375 C 85.1875 54.492188 85.488281 54.710938 85.792969 54.863281 C 85.867188 54.863281 85.867188 54.9375 85.929688 54.9375 C 86.238281 55.085938 86.476562 55.3125 86.769531 55.460938 L 86.84375 55.539062 C 87.742188 56.207031 88.582031 56.957031 89.40625 57.699219 L 89.480469 57.773438 C 92.699219 61.15625 94.6875 65.707031 94.6875 70.730469 C 94.6875 70.757812 94.6875 70.773438 94.6875 70.804688 C 94.332031 80.945312 85.96875 89.023438 75.695312 89.023438 C 65.417969 89.023438 57.054688 80.945312 56.699219 70.835938 Z M 56.699219 70.804688 " fill-opacity="1" fill-rule="nonzero"/><path fill="#000000" d="M 38.113281 150 C 30.375 150 23.042969 147.6875 16.863281 143.320312 C 5.085938 135.21875 0.507812 122.636719 3.292969 105.976562 C 4.675781 97.75 8.132812 90.667969 11.1875 84.429688 L 12.042969 82.679688 C 13.195312 80.367188 16.074219 79.292969 18.394531 80.445312 C 20.710938 81.601562 21.71875 84.28125 20.570312 86.59375 L 20.4375 86.855469 L 19.6875 88.382812 C 16.835938 94.210938 13.699219 100.632812 12.542969 107.519531 C 10.351562 120.636719 13.429688 129.570312 22.230469 135.625 C 26.863281 138.914062 32.320312 140.625 38.054688 140.625 C 48.585938 140.625 59.742188 135.132812 70.539062 129.8125 C 77.832031 126.238281 85.945312 123.425781 96.054688 120.957031 C 99.070312 120.21875 102.070312 119.789062 105.25 119.324219 L 106 119.21875 C 112.300781 118.324219 118.800781 117.40625 124.292969 114.238281 C 130.320312 110.769531 134.492188 104.957031 135.75 98.289062 C 136.65625 93.113281 135.84375 87.929688 133.40625 83.175781 C 132.65625 81.707031 132.730469 79.957031 133.605469 78.554688 C 135.082031 76.207031 135.824219 73.574219 135.824219 70.742188 C 135.824219 70.648438 135.824219 70.554688 135.832031 70.460938 C 135.6875 63.917969 131.179688 58.207031 124.789062 56.5 C 123.488281 56.15625 122.335938 55.257812 121.738281 54.0625 C 121.136719 52.863281 121.007812 51.449219 121.5 50.207031 L 137.773438 9.375 L 58.304688 9.375 L 74.625 50.382812 C 75.113281 51.605469 75.0625 52.980469 74.488281 54.164062 C 73.914062 55.34375 72.863281 56.238281 71.601562 56.613281 C 65.164062 58.519531 60.824219 64.226562 60.820312 70.800781 C 60.820312 75.511719 63.175781 80.011719 67.125 82.824219 C 68.144531 83.550781 68.824219 84.648438 69.03125 85.875 C 69.238281 87.105469 68.945312 88.363281 68.210938 89.382812 C 65.980469 92.488281 63.550781 95.25 60.800781 97.820312 C 55.792969 102.5625 50.011719 106.292969 43.632812 108.917969 C 42.1875 109.519531 40.199219 109.46875 38.898438 108.601562 C 31.851562 103.875 28.863281 95.320312 31.636719 87.792969 C 32.539062 85.363281 35.257812 84.125 37.65625 85.019531 C 40.085938 85.917969 41.324219 88.613281 40.429688 91.039062 C 39.394531 93.84375 40.144531 96.925781 42.28125 99.242188 C 46.789062 97.113281 50.800781 94.363281 54.351562 91 C 55.648438 89.78125 56.855469 88.53125 57.988281 87.210938 C 53.824219 82.769531 51.445312 76.894531 51.445312 70.78125 C 51.457031 61.738281 56.425781 53.71875 64.207031 49.550781 L 47.039062 6.417969 C 46.460938 4.976562 46.636719 3.34375 47.511719 2.054688 C 48.386719 0.769531 49.835938 0 51.394531 0 L 144.6875 0 C 146.242188 0 147.695312 0.769531 148.570312 2.054688 C 149.445312 3.34375 149.617188 4.976562 149.042969 6.425781 L 131.957031 49.304688 C 140.023438 53.445312 145.199219 61.632812 145.21875 70.742188 C 145.21875 70.875 145.210938 71.007812 145.207031 71.132812 C 145.148438 74.648438 144.34375 78.082031 142.84375 81.210938 C 145.363281 87.164062 146.113281 93.53125 145.011719 99.792969 C 143.210938 109.382812 137.386719 117.523438 128.988281 122.363281 C 121.925781 126.4375 114.179688 127.53125 107.34375 128.5 L 106.605469 128.605469 C 103.65625 129.03125 100.875 129.429688 98.292969 130.0625 C 88.851562 132.367188 81.351562 134.960938 74.6875 138.230469 C 62.925781 144.011719 50.773438 150 38.113281 150 Z M 38.113281 150 " fill-opacity="1" fill-rule="nonzero"/><path fill="#000000" d="M 114.707031 57.0625 C 113.011719 57.0625 111.375 56.144531 110.539062 54.53125 L 98.042969 30.429688 L 85.53125 54.332031 C 84.332031 56.632812 81.5 57.519531 79.207031 56.3125 C 76.914062 55.113281 76.023438 52.273438 77.226562 49.988281 L 93.914062 18.113281 C 94.71875 16.5625 96.324219 15.601562 98.070312 15.601562 C 98.070312 15.601562 98.074219 15.601562 98.074219 15.601562 C 99.824219 15.601562 101.425781 16.582031 102.230469 18.132812 L 118.863281 50.226562 C 120.050781 52.523438 119.15625 55.351562 116.855469 56.542969 C 116.167969 56.894531 115.429688 57.0625 114.707031 57.0625 Z M 114.707031 57.0625 " fill-opacity="1" fill-rule="nonzero"/><path fill="#000000" d="M 101.738281 71.65625 L 94.90625 71.65625 C 92.320312 71.65625 90.21875 69.554688 90.21875 66.96875 C 90.21875 64.382812 92.320312 62.28125 94.90625 62.28125 L 101.738281 62.28125 C 104.324219 62.28125 106.425781 64.382812 106.425781 66.96875 C 106.425781 69.554688 104.324219 71.65625 101.738281 71.65625 Z M 101.738281 71.65625 " fill-opacity="1" fill-rule="nonzero"/><path fill="#000000" d="M 75.695312 93.710938 C 62.867188 93.710938 52.460938 83.738281 52.011719 71.007812 C 52.011719 70.949219 52.011719 70.863281 52.011719 70.804688 L 52.011719 70.757812 C 52.011719 60.039062 59.300781 50.707031 69.730469 48.054688 C 70.519531 47.867188 70.875 47.792969 71.292969 47.71875 C 71.449219 47.695312 71.613281 47.675781 71.773438 47.664062 C 71.898438 47.644531 72.023438 47.625 72.144531 47.605469 C 72.519531 47.511719 72.8125 47.488281 73.195312 47.488281 C 73.585938 47.449219 73.9375 47.414062 74.320312 47.414062 L 77.261719 47.414062 C 77.507812 47.414062 78.175781 47.476562 78.417969 47.511719 C 78.855469 47.511719 79.289062 47.601562 79.699219 47.730469 C 79.710938 47.730469 79.730469 47.738281 79.75 47.738281 C 80.117188 47.769531 80.476562 47.84375 80.824219 47.957031 L 81.28125 48.050781 C 81.507812 48.082031 81.730469 48.125 81.929688 48.179688 C 82.335938 48.292969 82.710938 48.414062 83.070312 48.550781 C 83.164062 48.574219 83.25 48.601562 83.335938 48.632812 C 83.617188 48.71875 84.023438 48.84375 84.480469 49.054688 C 84.617188 49.105469 84.757812 49.167969 84.894531 49.238281 L 85.0625 49.3125 C 85.21875 49.351562 85.375 49.40625 85.523438 49.457031 C 85.988281 49.636719 86.4375 49.851562 86.855469 50.105469 C 86.898438 50.125 86.949219 50.148438 86.988281 50.175781 C 87.09375 50.226562 87.648438 50.542969 87.75 50.605469 L 87.75 50.617188 C 87.863281 50.667969 87.976562 50.726562 88.082031 50.78125 C 88.429688 50.960938 88.742188 51.167969 89.054688 51.382812 C 89.492188 51.605469 89.730469 51.8125 90.082031 52.164062 C 90.644531 52.53125 91.59375 53.375 92.519531 54.210938 C 97.0625 58.945312 99.375 64.6875 99.375 70.738281 C 98.925781 83.726562 88.523438 93.710938 75.695312 93.710938 Z M 73.632812 56.867188 C 73.550781 56.882812 73.46875 56.886719 73.386719 56.898438 C 72.988281 57.011719 72.699219 57.03125 72.28125 57.03125 C 65.761719 58.730469 61.382812 64.332031 61.382812 70.757812 L 61.382812 70.84375 C 61.648438 78.335938 67.929688 84.34375 75.6875 84.34375 C 83.445312 84.34375 89.726562 78.332031 90 70.648438 C 90 67.117188 88.605469 63.667969 86.09375 61.03125 C 85.542969 60.542969 84.832031 59.894531 84.054688 59.324219 C 84.019531 59.300781 83.980469 59.269531 83.949219 59.242188 C 83.832031 59.167969 83.726562 59.105469 83.667969 59.0625 C 83.46875 58.957031 83.261719 58.84375 83.054688 58.71875 C 82.75 58.59375 82.449219 58.4375 82.164062 58.238281 C 82 58.179688 81.84375 58.113281 81.6875 58.039062 C 81.480469 57.960938 81.289062 57.894531 81.09375 57.804688 C 80.925781 57.75 80.757812 57.679688 80.59375 57.601562 C 80.523438 57.585938 80.460938 57.570312 80.394531 57.550781 C 80.136719 57.488281 79.894531 57.398438 79.648438 57.292969 L 78.601562 57.082031 C 78.476562 57.054688 78.351562 57.023438 78.230469 56.992188 C 78.1875 56.988281 78.136719 56.976562 78.09375 56.960938 C 77.957031 56.945312 77.554688 56.875 77.34375 56.832031 C 77.199219 56.820312 77.0625 56.800781 76.976562 56.789062 L 74.324219 56.800781 C 74.257812 56.824219 73.976562 56.863281 73.632812 56.867188 Z M 77.789062 56.855469 C 77.8125 56.855469 77.835938 56.863281 77.863281 56.863281 C 77.835938 56.863281 77.8125 56.863281 77.789062 56.855469 Z M 77.789062 56.855469 " fill-opacity="1" fill-rule="nonzero"/><path fill="#000000" d="M 120.976562 93.710938 C 108.148438 93.710938 97.742188 83.738281 97.292969 71.007812 C 97.292969 70.949219 97.292969 70.863281 97.292969 70.804688 L 97.292969 70.757812 C 97.292969 60.039062 104.582031 50.707031 115.011719 48.054688 C 115.8125 47.867188 116.164062 47.792969 116.574219 47.71875 C 116.730469 47.695312 116.894531 47.675781 117.054688 47.664062 C 117.179688 47.644531 117.304688 47.625 117.425781 47.605469 C 117.800781 47.511719 118.09375 47.488281 118.476562 47.488281 C 118.875 47.449219 119.21875 47.414062 119.605469 47.414062 L 122.542969 47.414062 C 122.789062 47.414062 123.457031 47.476562 123.695312 47.511719 C 124.132812 47.511719 124.5625 47.59375 124.980469 47.730469 C 125 47.730469 125.019531 47.738281 125.042969 47.738281 C 125.40625 47.773438 125.757812 47.851562 126.105469 47.957031 L 126.570312 48.050781 C 126.792969 48.082031 127.019531 48.125 127.21875 48.179688 C 127.625 48.292969 128 48.414062 128.355469 48.550781 C 128.449219 48.574219 128.539062 48.601562 128.632812 48.632812 C 128.914062 48.71875 129.320312 48.84375 129.769531 49.050781 C 129.914062 49.105469 130.050781 49.167969 130.1875 49.230469 C 130.1875 49.230469 130.257812 49.257812 130.351562 49.300781 C 130.511719 49.34375 130.675781 49.394531 130.824219 49.449219 C 131.289062 49.632812 131.730469 49.84375 132.148438 50.101562 C 132.1875 50.132812 132.21875 50.144531 132.257812 50.164062 C 132.367188 50.21875 132.929688 50.539062 133.039062 50.601562 L 133.03125 50.613281 C 133.144531 50.664062 133.257812 50.71875 133.367188 50.773438 C 133.710938 50.949219 134.023438 51.15625 134.332031 51.367188 C 134.769531 51.59375 135.019531 51.804688 135.367188 52.148438 C 135.914062 52.507812 136.84375 53.335938 137.761719 54.15625 C 142.351562 58.925781 144.664062 64.675781 144.664062 70.71875 C 144.199219 83.726562 133.800781 93.710938 120.976562 93.710938 Z M 118.914062 56.867188 C 118.832031 56.882812 118.757812 56.886719 118.667969 56.898438 C 118.273438 57.007812 117.976562 57.03125 117.5625 57.03125 C 111.042969 58.730469 106.664062 64.332031 106.664062 70.757812 L 106.664062 70.84375 C 106.929688 78.335938 113.210938 84.34375 120.96875 84.34375 C 128.71875 84.34375 135.007812 78.324219 135.28125 70.644531 C 135.28125 67.113281 133.886719 63.667969 131.367188 61.03125 C 130.789062 60.519531 130.09375 59.882812 129.335938 59.324219 C 129.300781 59.300781 129.269531 59.273438 129.230469 59.242188 C 129.113281 59.167969 129.011719 59.101562 128.949219 59.0625 C 128.742188 58.957031 128.539062 58.84375 128.332031 58.71875 C 128.023438 58.59375 127.726562 58.4375 127.445312 58.238281 C 127.273438 58.179688 127.105469 58.105469 126.949219 58.03125 C 126.882812 58.007812 126.695312 57.929688 126.519531 57.855469 C 126.488281 57.851562 126.460938 57.835938 126.429688 57.832031 C 126.242188 57.769531 126.054688 57.695312 125.882812 57.605469 C 125.8125 57.59375 125.742188 57.574219 125.675781 57.554688 C 125.425781 57.492188 125.175781 57.40625 124.9375 57.300781 L 123.886719 57.085938 C 123.761719 57.0625 123.644531 57.039062 123.523438 57 C 123.476562 56.988281 123.425781 56.976562 123.375 56.960938 C 123.238281 56.945312 122.832031 56.875 122.625 56.832031 C 122.480469 56.820312 122.351562 56.804688 122.261719 56.792969 L 119.613281 56.804688 C 119.539062 56.824219 119.257812 56.863281 118.914062 56.867188 Z M 123.070312 56.855469 C 123.09375 56.855469 123.117188 56.863281 123.144531 56.863281 C 123.117188 56.863281 123.09375 56.863281 123.070312 56.855469 Z M 123.070312 56.855469 " fill-opacity="1" fill-rule="nonzero"/><path fill="#000000" d="M 30.195312 93.148438 C 18.988281 93.148438 9.875 84.039062 9.875 72.84375 C 9.875 61.636719 18.988281 52.523438 30.1875 52.523438 C 41.386719 52.523438 50.5 61.636719 50.5 72.835938 C 50.5 84.039062 41.386719 93.148438 30.195312 93.148438 Z M 30.1875 61.898438 C 24.15625 61.898438 19.25 66.8125 19.25 72.84375 C 19.25 78.867188 24.164062 83.773438 30.195312 83.773438 C 36.21875 83.773438 41.125 78.867188 41.125 72.835938 C 41.125 66.804688 36.21875 61.898438 30.1875 61.898438 Z M 30.1875 61.898438 " fill-opacity="1" fill-rule="nonzero"/></svg>