<svg xmlns="http://www.w3.org/2000/svg" xmlns:xlink="http://www.w3.org/1999/xlink" width="200" zoomAndPan="magnify" viewBox="0 0 150 149.999998" height="200" preserveAspectRatio="xMidYMid meet" version="1.0"><defs><clipPath id="9629fefee6"><path d="M 0 2.453125 L 149 2.453125 L 149 147 L 0 147 Z M 0 2.453125 " clip-rule="nonzero"/></clipPath></defs><g clip-path="url(#9629fefee6)"><path fill="#326ce5" d="M 73.785156 2.449219 C 72.4375 2.527344 71.160156 2.867188 69.949219 3.464844 L 18.03125 28.167969 C 15.320312 29.457031 13.351562 31.90625 12.675781 34.824219 L -0.03125 90.273438 C -0.636719 92.875 -0.148438 95.605469 1.363281 97.835938 C 1.542969 98.105469 1.726562 98.363281 1.925781 98.617188 L 37.792969 143.109375 C 39.6875 145.433594 42.535156 146.769531 45.535156 146.753906 L 103.066406 146.753906 C 106.074219 146.757812 108.925781 145.359375 110.816406 143.070312 L 146.667969 98.5625 C 148.550781 96.242188 149.253906 93.171875 148.53125 90.265625 L 135.742188 34.769531 C 135.066406 31.851562 133.085938 29.402344 130.382812 28.113281 L 78.550781 3.46875 C 77.03125 2.722656 75.429688 2.382812 73.738281 2.449219 Z M 73.785156 2.449219 " fill-opacity="1" fill-rule="nonzero"/></g><path stroke-linecap="butt" transform="matrix(4.658385, 0, 0, 4.647473, -0.28416, 0.23757)" fill-opacity="1" fill="#ffffff" fill-rule="nonzero" stroke-linejoin="miter" d="M 16.001677 4.542272 C 15.617625 4.569168 15.326651 4.897808 15.346776 5.281921 L 15.346776 5.470195 C 15.365224 5.682844 15.397088 5.893812 15.439015 6.1031 C 15.500229 6.504023 15.52287 6.907468 15.50526 7.312594 C 15.466687 7.446235 15.391218 7.565588 15.287239 7.658044 L 15.272146 7.939615 C 14.86713 7.974076 14.46463 8.036274 14.068838 8.126208 C 12.402656 8.501917 10.885734 9.365961 9.71513 10.610757 L 9.475307 10.440974 C 9.342817 10.481319 9.201104 10.46619 9.080354 10.40063 C 8.755 10.160244 8.45564 9.89044 8.183114 9.591218 C 8.046432 9.427319 7.900526 9.272665 7.746234 9.126416 L 7.597812 9.007904 C 7.466161 8.902 7.304323 8.840642 7.134937 8.833078 C 7.032635 8.827194 6.934526 8.845685 6.841448 8.88687 C 6.747531 8.928896 6.668708 8.989413 6.60414 9.069261 C 6.377734 9.386134 6.452364 9.82488 6.767656 10.051818 L 6.906015 10.161925 C 7.083786 10.280437 7.267427 10.388022 7.457776 10.484681 C 7.81164 10.682201 8.146218 10.913341 8.45564 11.184826 C 8.536979 11.299976 8.581422 11.428574 8.588968 11.568939 L 8.806989 11.768981 C 7.629677 13.534893 7.146677 15.673993 7.44939 17.775269 L 7.169317 17.855117 C 7.096364 17.971108 6.999093 18.070288 6.883375 18.143412 C 6.491776 18.247636 6.093468 18.313195 5.689291 18.340092 C 5.474625 18.344294 5.261635 18.361105 5.048646 18.389682 L 4.871713 18.430026 L 4.851588 18.430026 C 4.726646 18.447677 4.61512 18.496427 4.517849 18.577116 C 4.420578 18.656964 4.350979 18.756985 4.30989 18.877178 C 4.26964 18.99653 4.262932 19.118404 4.290604 19.241119 C 4.318276 19.364674 4.376974 19.471419 4.465021 19.562194 C 4.553906 19.652129 4.660401 19.711805 4.783666 19.741223 C 4.906932 19.771481 5.028521 19.766438 5.149271 19.726934 L 5.161849 19.726934 L 5.342135 19.706762 C 5.545062 19.647086 5.744635 19.573121 5.940015 19.48907 C 6.314843 19.338618 6.703927 19.224309 7.102234 19.148663 C 7.239755 19.157068 7.372245 19.204137 7.483771 19.283985 L 7.783968 19.234395 C 8.433838 21.25078 9.799823 22.960378 11.623651 24.037072 L 11.502062 24.291747 C 11.558245 24.409418 11.579208 24.538857 11.561599 24.668295 C 11.397245 25.049887 11.195156 25.41635 10.958687 25.760118 C 10.829552 25.930742 10.710479 26.10809 10.60063 26.293002 L 10.515937 26.472871 C 10.453047 26.582138 10.423698 26.699809 10.427052 26.825045 C 10.430406 26.951122 10.465625 27.067112 10.534385 27.172176 C 10.603146 27.27808 10.694547 27.357929 10.80775 27.412562 C 10.921791 27.466355 11.040864 27.487367 11.165807 27.473919 C 11.291588 27.459631 11.403953 27.414243 11.503739 27.336076 C 11.603526 27.258749 11.674802 27.160409 11.719245 27.041897 L 11.80226 26.872114 C 11.877729 26.672072 11.942297 26.467828 11.994286 26.261903 C 12.171218 25.824838 12.266812 25.355833 12.509151 25.065857 C 12.589651 24.990211 12.685245 24.943142 12.795093 24.926332 L 12.945192 24.653166 C 13.434901 24.84144 13.938026 24.983487 14.454567 25.080145 C 14.971109 25.176804 15.491843 25.225554 16.016771 25.227235 C 16.541698 25.228075 17.062432 25.181847 17.578974 25.08771 C 18.096354 24.993573 18.600317 24.854048 19.090864 24.668295 L 19.224192 24.92297 C 19.360036 24.943142 19.481625 25.017948 19.563802 25.128054 C 19.751635 25.486112 19.90425 25.86098 20.019968 26.247614 C 20.072797 26.455221 20.137364 26.659465 20.213672 26.858666 L 20.296687 27.029289 C 20.34113 27.146961 20.413245 27.24446 20.513031 27.321787 C 20.612817 27.399114 20.725182 27.444501 20.850125 27.45879 C 20.975906 27.472238 21.094979 27.452066 21.209021 27.398273 C 21.323062 27.344481 21.414463 27.265473 21.484062 27.160409 C 21.552823 27.053664 21.588041 26.937674 21.591396 26.811597 C 21.593911 26.68552 21.563724 26.567849 21.499995 26.458583 L 21.412786 26.278713 C 21.303776 26.095482 21.184703 25.918134 21.054729 25.748351 C 20.824968 25.41635 20.627073 25.061654 20.455172 24.690989 C 20.420791 24.548102 20.443432 24.414461 20.523093 24.290906 C 20.480328 24.203493 20.443432 24.114399 20.412406 24.021943 C 22.232041 22.936844 23.592156 21.222202 24.235317 19.201615 L 24.518745 19.252046 C 24.621047 19.158749 24.755213 19.109999 24.891896 19.114202 C 25.289364 19.189848 25.677609 19.314243 26.054114 19.453768 C 26.248656 19.543703 26.449067 19.620189 26.651995 19.684068 C 26.699791 19.696676 26.770229 19.707602 26.823896 19.721051 L 26.837312 19.721051 C 26.957224 19.759714 27.078812 19.763917 27.202078 19.734499 C 27.324505 19.70424 27.430161 19.644564 27.519047 19.554629 C 27.608771 19.464695 27.667469 19.35795 27.695979 19.234395 C 27.724489 19.11168 27.71862 18.989806 27.67837 18.869613 C 27.636442 18.750261 27.566844 18.65024 27.469573 18.569551 C 27.371463 18.489703 27.259937 18.440953 27.134156 18.424143 L 26.939614 18.377915 C 26.727463 18.349337 26.514474 18.332527 26.299807 18.328325 C 25.89563 18.302269 25.495646 18.235868 25.105724 18.130805 C 24.985812 18.064404 24.886026 17.964384 24.818104 17.84335 L 24.548094 17.762661 C 24.61937 17.242385 24.642849 16.719588 24.61937 16.194269 C 24.595052 15.66979 24.523776 15.151195 24.405541 14.639324 C 24.287307 14.127453 24.123791 13.629871 23.914995 13.148259 C 23.705359 12.665805 23.454635 12.206046 23.161984 11.769821 L 23.397614 11.552129 C 23.38839 11.415126 23.432833 11.278963 23.521719 11.173899 C 23.828625 10.909979 24.162364 10.677158 24.512036 10.477957 C 24.702385 10.381298 24.886026 10.272872 25.063797 10.155201 L 25.209703 10.036689 C 25.319552 9.968607 25.402567 9.876992 25.459588 9.761001 C 25.515771 9.645011 25.536734 9.522296 25.522479 9.393698 C 25.508224 9.265941 25.461265 9.150791 25.380765 9.049929 C 25.300265 8.949068 25.198802 8.877625 25.077213 8.834759 C 24.954786 8.792733 24.831521 8.786009 24.705739 8.814586 C 24.579958 8.844004 24.471786 8.904521 24.381224 8.996137 L 24.232802 9.113808 C 24.07851 9.260898 23.932604 9.415551 23.795922 9.57861 C 23.531781 9.881194 23.239969 10.156041 22.923 10.402311 C 22.792187 10.455263 22.658021 10.469552 22.518823 10.446017 L 22.266422 10.625887 C 20.805682 9.096157 18.839302 8.146381 16.731208 7.955585 C 16.731208 7.856404 16.717791 7.705953 16.716114 7.658885 C 16.602911 7.580717 16.524088 7.462205 16.498093 7.326883 C 16.483838 6.922597 16.509833 6.519993 16.574401 6.11991 C 16.617166 5.909782 16.647354 5.699655 16.665802 5.487005 L 16.665802 5.286964 C 16.685927 4.902851 16.395791 4.574211 16.010901 4.547315 Z M 15.168166 9.708049 L 14.967755 13.201211 L 14.952661 13.201211 C 14.942599 13.417222 14.815979 13.601294 14.620599 13.704676 C 14.426057 13.8089 14.19462 13.777801 14.021041 13.650884 L 11.155745 11.621051 C 11.611911 11.173059 12.120906 10.79651 12.68189 10.490564 C 13.242875 10.184619 13.835724 9.961883 14.45876 9.822359 C 14.692713 9.771928 14.929182 9.734105 15.165651 9.708049 Z M 16.836026 9.708049 C 18.341208 9.894642 19.742411 10.571253 20.825807 11.631978 L 17.988182 13.649203 C 17.812927 13.788727 17.573104 13.817305 17.370177 13.720646 C 17.16725 13.624828 17.037276 13.420584 17.033922 13.197008 Z M 10.115953 12.934769 L 12.736396 15.273069 L 12.736396 15.288198 C 12.899073 15.430244 12.970349 15.651299 12.921713 15.862267 C 12.873916 16.073235 12.712078 16.239656 12.504958 16.296811 L 12.504958 16.306897 L 9.143245 17.274324 C 9.060229 16.517025 9.101317 15.766449 9.268187 15.022597 C 9.435057 14.279586 9.718484 13.582802 10.116791 12.933928 Z M 21.868953 12.934769 C 22.664729 14.229995 23.016916 15.748798 22.87101 17.261717 L 19.504265 16.291768 L 19.504265 16.27916 C 19.293791 16.222005 19.13363 16.054744 19.086672 15.843776 C 19.039713 15.632807 19.110151 15.414275 19.272828 15.269707 L 21.873146 12.943174 Z M 15.46501 15.454619 L 16.536666 15.454619 L 17.192406 16.286725 L 16.95426 17.327277 L 15.990776 17.790398 L 15.025614 17.327277 L 14.799208 16.286725 Z M 18.898838 18.293023 C 18.94412 18.28798 18.998625 18.28798 19.033843 18.293023 L 22.501213 18.878018 C 22.000604 20.317813 21.01364 21.54832 19.72564 22.37118 L 18.385651 19.12681 C 18.367203 19.083103 18.354625 19.038556 18.347078 18.991487 C 18.339531 18.945259 18.337854 18.898191 18.341208 18.851122 C 18.344562 18.804054 18.353786 18.757825 18.36888 18.713278 C 18.383135 18.667891 18.40326 18.625865 18.428416 18.585521 C 18.453573 18.545176 18.482922 18.509034 18.516463 18.475414 C 18.550005 18.442634 18.586901 18.414057 18.627989 18.389682 C 18.668239 18.366148 18.711005 18.346816 18.756286 18.332527 C 18.801567 18.319079 18.847687 18.310674 18.894646 18.308152 Z M 13.076005 18.308152 C 13.272224 18.310674 13.453349 18.412376 13.559843 18.576275 C 13.667177 18.740175 13.683948 18.9461 13.606802 19.125969 L 13.606802 19.139417 L 12.275198 22.356891 C 10.999776 21.539915 10.032099 20.325378 9.517234 18.899872 L 12.954416 18.317398 C 12.992151 18.313195 13.030724 18.313195 13.070135 18.317398 Z M 15.979875 19.707602 C 16.091401 19.70424 16.19538 19.730296 16.291812 19.78577 C 16.389083 19.841244 16.463713 19.91773 16.51738 20.01607 L 16.529958 20.01607 L 18.223812 23.073006 L 17.547109 23.273048 C 16.301036 23.557981 14.99962 23.49074 13.788765 23.07889 L 15.489328 20.021953 C 15.59163 19.842084 15.781979 19.731977 15.989099 19.726934 Z M 15.979875 19.707602 " stroke="#ffffff" stroke-width="0.055" stroke-opacity="1" stroke-miterlimit="4"/></svg>