<svg xmlns="http://www.w3.org/2000/svg" xmlns:xlink="http://www.w3.org/1999/xlink" zoomAndPan="magnify" preserveAspectRatio="xMidYMid meet" version="1.0" viewBox="0.23 47.34 148.77 56.3"><defs><clipPath id="b842e1c3c9"><path d="M 91 48 L 149 48 L 149 103.636719 L 91 103.636719 Z M 91 48 " clip-rule="nonzero"/></clipPath></defs><path fill="#00acd7" d="M 11.441406 64.230469 C 11.152344 64.230469 11.082031 64.085938 11.226562 63.867188 L 12.746094 61.90625 C 12.890625 61.6875 13.25 61.542969 13.539062 61.542969 L 39.371094 61.542969 C 39.664062 61.542969 39.734375 61.761719 39.589844 61.976562 L 38.359375 63.867188 C 38.214844 64.085938 37.851562 64.304688 37.636719 64.304688 Z M 0.515625 70.921875 C 0.226562 70.921875 0.15625 70.777344 0.300781 70.558594 L 1.820312 68.59375 C 1.964844 68.378906 2.324219 68.230469 2.613281 68.230469 L 35.609375 68.230469 C 35.902344 68.230469 36.042969 68.449219 35.972656 68.667969 L 35.394531 70.414062 C 35.320312 70.703125 35.03125 70.847656 34.742188 70.847656 Z M 18.027344 77.613281 C 17.738281 77.613281 17.664062 77.394531 17.808594 77.175781 L 18.824219 75.359375 C 18.96875 75.140625 19.257812 74.921875 19.546875 74.921875 L 34.019531 74.921875 C 34.308594 74.921875 34.453125 75.140625 34.453125 75.429688 L 34.308594 77.175781 C 34.308594 77.464844 34.015625 77.683594 33.800781 77.683594 L 18.027344 77.609375 Z M 93.136719 62.921875 L 80.980469 66.121094 C 79.894531 66.414062 79.824219 66.484375 78.882812 65.394531 C 77.796875 64.160156 77 63.355469 75.480469 62.632812 C 70.921875 60.378906 66.507812 61.03125 62.386719 63.722656 C 57.464844 66.921875 54.933594 71.648438 55.003906 77.539062 C 55.078125 83.355469 59.054688 88.15625 64.773438 88.957031 C 69.691406 89.613281 73.816406 87.867188 77.074219 84.160156 C 77.726562 83.359375 78.304688 82.484375 79.027344 81.46875 L 65.058594 81.46875 C 63.539062 81.46875 63.179688 80.523438 63.683594 79.285156 C 64.625 77.03125 66.363281 73.25 67.375 71.359375 C 67.59375 70.921875 68.097656 70.195312 69.183594 70.195312 L 95.523438 70.195312 C 95.378906 72.160156 95.378906 74.121094 95.089844 76.085938 C 94.292969 81.320312 92.339844 86.121094 89.15625 90.339844 C 83.945312 97.246094 77.144531 101.539062 68.535156 102.703125 C 61.441406 103.648438 54.859375 102.265625 49.070312 97.902344 C 43.710938 93.828125 40.675781 88.449219 39.882812 81.757812 C 38.941406 73.832031 41.257812 66.707031 46.03125 60.453125 C 51.171875 53.6875 57.972656 49.398438 66.292969 47.871094 C 73.09375 46.632812 79.605469 47.433594 85.46875 51.433594 C 89.304688 53.980469 92.054688 57.46875 93.863281 61.6875 C 94.296875 62.34375 94.007812 62.707031 93.140625 62.925781 Z M 93.136719 62.921875 " fill-opacity="1" fill-rule="nonzero"/><g clip-path="url(#b842e1c3c9)"><path fill="#00acd7" d="M 117.089844 103.136719 C 110.503906 102.992188 104.5 101.09375 99.433594 96.734375 C 95.164062 93.027344 92.488281 88.300781 91.617188 82.703125 C 90.316406 74.484375 92.558594 67.210938 97.480469 60.742188 C 102.761719 53.757812 109.128906 50.125 117.742188 48.597656 C 125.121094 47.289062 132.070312 48.015625 138.363281 52.304688 C 144.082031 56.230469 147.625 61.539062 148.566406 68.523438 C 149.796875 78.339844 146.976562 86.335938 140.246094 93.171875 C 135.46875 98.042969 129.609375 101.101562 122.878906 102.480469 C 120.925781 102.84375 118.972656 102.917969 117.089844 103.136719 Z M 134.3125 73.757812 C 134.238281 72.8125 134.238281 72.085938 134.09375 71.359375 C 132.789062 64.160156 126.207031 60.085938 119.332031 61.6875 C 112.601562 63.214844 108.261719 67.503906 106.667969 74.339844 C 105.367188 80.011719 108.117188 85.757812 113.328125 88.085938 C 117.304688 89.828125 121.285156 89.609375 125.121094 87.648438 C 130.839844 84.671875 133.949219 80.011719 134.3125 73.757812 Z M 134.3125 73.757812 " fill-opacity="1" fill-rule="nonzero"/></g></svg>