<svg xmlns="http://www.w3.org/2000/svg" xmlns:xlink="http://www.w3.org/1999/xlink" width="200" zoomAndPan="magnify" viewBox="0 0 150 149.999998" height="200" preserveAspectRatio="xMidYMid meet" version="1.0"><defs><clipPath id="dad334a3d4"><path d="M 8.453125 0 L 141.203125 0 L 141.203125 150 L 8.453125 150 Z M 8.453125 0 " clip-rule="nonzero"/></clipPath></defs><g clip-path="url(#dad334a3d4)"><path fill="#448037" d="M 75 149.980469 C 72.9375 149.980469 71.011719 149.429688 69.230469 148.472656 L 50.960938 137.617188 C 48.214844 136.109375 49.589844 135.558594 50.414062 135.285156 C 54.121094 134.046875 54.808594 133.773438 58.652344 131.574219 C 59.066406 131.300781 59.617188 131.4375 60.027344 131.714844 L 74.035156 140.089844 C 74.585938 140.363281 75.273438 140.363281 75.6875 140.089844 L 130.488281 108.363281 C 131.039062 108.089844 131.3125 107.539062 131.3125 106.851562 L 131.3125 43.527344 C 131.3125 42.839844 131.039062 42.292969 130.488281 42.019531 L 75.6875 10.425781 C 75.140625 10.148438 74.449219 10.148438 74.035156 10.425781 L 19.234375 42.019531 C 18.683594 42.292969 18.40625 42.980469 18.40625 43.527344 L 18.40625 106.851562 C 18.40625 107.398438 18.683594 108.089844 19.230469 108.363281 L 34.203125 117.015625 C 42.308594 121.136719 47.390625 116.332031 47.390625 111.519531 L 47.390625 49.023438 C 47.390625 48.199219 48.078125 47.375 49.039062 47.375 L 56.042969 47.375 C 56.867188 47.375 57.691406 48.0625 57.691406 49.023438 L 57.691406 111.519531 C 57.691406 122.375 51.785156 128.691406 41.484375 128.691406 C 38.324219 128.691406 35.851562 128.691406 28.847656 125.257812 L 14.425781 117.015625 C 10.851562 114.957031 8.65625 111.113281 8.65625 106.992188 L 8.65625 43.667969 C 8.65625 39.546875 10.851562 35.699219 14.425781 33.640625 L 69.230469 1.910156 C 72.660156 -0.0117188 77.335938 -0.0117188 80.769531 1.910156 L 135.574219 33.640625 C 139.144531 35.699219 141.34375 39.546875 141.34375 43.667969 L 141.34375 106.988281 C 141.34375 111.109375 139.144531 114.957031 135.574219 117.011719 L 80.769531 148.746094 C 78.984375 149.570312 76.921875 149.976562 75 149.976562 Z M 91.898438 106.441406 C 67.855469 106.441406 62.914062 95.449219 62.914062 86.109375 C 62.914062 85.285156 63.597656 84.460938 64.5625 84.460938 L 71.703125 84.460938 C 72.527344 84.460938 73.210938 85.007812 73.210938 85.832031 C 74.308594 93.113281 77.472656 96.6875 92.03125 96.6875 C 103.570312 96.6875 108.511719 94.074219 108.511719 87.894531 C 108.511719 84.324219 107.140625 81.710938 89.148438 79.929688 C 74.175781 78.414062 64.835938 75.121094 64.835938 63.171875 C 64.835938 52.042969 74.175781 45.453125 89.832031 45.453125 C 107.414062 45.453125 116.070312 51.496094 117.167969 64.679688 C 117.167969 65.09375 117.03125 65.503906 116.753906 65.917969 C 116.480469 66.195312 116.070312 66.46875 115.65625 66.46875 L 108.511719 66.46875 C 107.828125 66.46875 107.140625 65.917969 107.003906 65.230469 C 105.355469 57.679688 101.097656 55.207031 89.832031 55.207031 C 77.195312 55.207031 75.6875 59.601562 75.6875 62.898438 C 75.6875 66.878906 77.472656 68.117188 94.503906 70.3125 C 111.402344 72.511719 119.367188 75.667969 119.367188 87.480469 C 119.226562 99.566406 109.335938 106.441406 91.898438 106.441406 Z M 91.898438 106.441406 " fill-opacity="1" fill-rule="nonzero"/></g></svg>