<svg xmlns="http://www.w3.org/2000/svg" xmlns:xlink="http://www.w3.org/1999/xlink" width="508" zoomAndPan="magnify" viewBox="0 0 381 149.999998" height="200" preserveAspectRatio="xMidYMid meet" version="1.0"><defs><clipPath id="b5d5624d2a"><path d="M 0 3 L 381 3 L 381 149.25 L 0 149.25 Z M 0 3 " clip-rule="nonzero"/></clipPath><clipPath id="29ffeb1ee5"><path d="M 207.019531 107.257812 L 235.953125 107.257812 L 235.953125 126.679688 L 207.019531 126.679688 Z M 207.019531 107.257812 " clip-rule="nonzero"/></clipPath></defs><path fill="#c53735" d="M 169.339844 46.082031 L 190.5 46.082031 L 190.5 89.074219 L 169.339844 89.074219 Z M 169.339844 46.082031 " fill-opacity="1" fill-rule="nonzero"/><g clip-path="url(#b5d5624d2a)"><path fill="#c53735" d="M 381 3.089844 L 0 3.089844 L 0 132.082031 L 105.839844 132.082031 L 105.839844 153.578125 L 190.5 153.578125 L 190.5 132.082031 L 381 132.082031 Z M 105.839844 110.585938 L 84.660156 110.585938 L 84.660156 46.082031 L 63.5 46.082031 L 63.5 110.570312 L 21.160156 110.570312 L 21.160156 24.585938 L 105.824219 24.585938 L 105.824219 110.585938 Z M 211.660156 110.585938 L 169.324219 110.585938 L 169.324219 132.082031 L 127 132.082031 L 127 24.585938 L 211.660156 24.585938 Z M 359.839844 110.585938 L 338.675781 110.585938 L 338.675781 46.082031 L 317.5 46.082031 L 317.5 110.570312 L 296.339844 110.570312 L 296.339844 46.082031 L 275.175781 46.082031 L 275.175781 110.570312 L 232.839844 110.570312 L 232.839844 24.585938 L 359.839844 24.585938 Z M 359.839844 110.585938 " fill-opacity="1" fill-rule="nonzero"/></g><g clip-path="url(#29ffeb1ee5)"><path fill="#c53735" d="M 207.019531 107.257812 L 235.929688 107.257812 L 235.929688 126.679688 L 207.019531 126.679688 Z M 207.019531 107.257812 " fill-opacity="1" fill-rule="nonzero"/></g></svg>