<svg xmlns="http://www.w3.org/2000/svg" xmlns:xlink="http://www.w3.org/1999/xlink" width="200" zoomAndPan="magnify" viewBox="0 0 150 149.999998" height="200" preserveAspectRatio="xMidYMid meet" version="1.0"><path fill="#32648d" d="M 137.015625 92.460938 C 137.015625 92.46875 137.011719 92.472656 137.003906 92.472656 C 136.992188 92.472656 136.988281 92.46875 136.988281 92.460938 C 136.988281 92.453125 136.992188 92.449219 137.003906 92.449219 C 137.011719 92.449219 137.015625 92.453125 137.015625 92.460938 Z M 137.015625 92.460938 " fill-opacity="1" fill-rule="nonzero"/><path fill="#32648d" d="M 118.640625 91.28125 L 118.65625 91.296875 L 118.65625 91.300781 L 118.636719 91.308594 C 117.738281 91.636719 116.992188 91.773438 116.367188 92.050781 C 115.730469 92.304688 115.214844 92.769531 114.910156 93.367188 L 114.90625 93.378906 C 114.519531 94.089844 114.1875 95.355469 114.285156 97.507812 C 114.539062 97.691406 114.847656 97.835938 115.164062 97.933594 L 115.191406 97.941406 C 116.238281 98.261719 117.992188 98.472656 119.949219 98.441406 C 123.855469 98.398438 128.664062 97.476562 131.21875 96.273438 C 133.417969 95.226562 135.304688 93.960938 136.984375 92.460938 C 128.453125 94.246094 123.636719 93.769531 120.683594 92.535156 C 119.914062 92.199219 119.238281 91.785156 118.640625 91.28125 Z M 118.640625 91.28125 " fill-opacity="1" fill-rule="nonzero"/><path fill="#32648d" d="M 109.898438 25.730469 L 109.933594 25.785156 L 109.976562 25.835938 Z M 109.898438 25.730469 " fill-opacity="1" fill-rule="nonzero"/><path fill="#32648d" d="M 77.273438 119.621094 C 77.269531 119.46875 77.273438 119.304688 77.269531 119.152344 C 77.269531 119.089844 77.261719 119.046875 77.261719 118.984375 Z M 77.273438 119.621094 " fill-opacity="1" fill-rule="nonzero"/><path fill="#32648d" d="M 70.734375 92.269531 C 70.375 92.089844 69.953125 91.957031 69.503906 91.898438 L 69.484375 91.898438 L 69.484375 91.882812 L 69.351562 91.882812 C 69.03125 91.914062 68.558594 92.027344 67.640625 93.050781 C 65.511719 95.46875 64.765625 96.984375 63.007812 98.40625 C 61.246094 99.816406 58.964844 100.574219 54.402344 101.523438 C 52.957031 101.820312 52.128906 102.148438 51.582031 102.414062 C 51.761719 102.5625 51.742188 102.601562 52.011719 102.742188 C 52.679688 103.117188 53.535156 103.445312 54.230469 103.625 C 56.1875 104.121094 59.410156 104.695312 62.769531 104.121094 C 66.128906 103.539062 69.625 101.90625 72.609375 97.671875 C 73.121094 96.941406 73.175781 95.863281 72.757812 94.703125 C 72.335938 93.546875 71.390625 92.546875 70.734375 92.269531 Z M 70.734375 92.269531 " fill-opacity="1" fill-rule="nonzero"/><path fill="#32648d" d="M 95.765625 9.308594 L 95.410156 9.378906 C 95.527344 9.351562 95.660156 9.339844 95.777344 9.316406 C 95.769531 9.316406 95.769531 9.308594 95.765625 9.308594 Z M 95.765625 9.308594 " fill-opacity="1" fill-rule="nonzero"/><path fill="#32648d" d="M 113.007812 42.769531 C 108.847656 42.824219 106.519531 43.910156 105.292969 45.328125 C 103.554688 47.34375 103.394531 50.875 104.472656 55.226562 C 105.546875 59.585938 107.757812 64.457031 109.839844 68.503906 C 110.882812 70.53125 111.890625 72.351562 112.703125 73.835938 C 113.523438 75.324219 114.125 76.375 114.488281 77.273438 C 114.824219 78.105469 115.203125 78.835938 115.582031 79.519531 C 117.191406 76.078125 117.476562 72.699219 117.316406 69.179688 C 117.105469 64.824219 116.101562 60.367188 116.25 55.851562 C 116.417969 50.578125 117.445312 47.144531 117.53125 43.066406 C 116.175781 42.878906 114.601562 42.769531 113.007812 42.769531 Z M 113.777344 45.90625 L 113.769531 45.953125 C 113.769531 45.972656 113.769531 45.992188 113.769531 46.015625 C 113.769531 46.300781 113.691406 46.574219 113.546875 46.796875 L 113.554688 46.792969 C 113.363281 47.144531 113.136719 47.453125 112.878906 47.722656 C 112.269531 48.398438 111.457031 48.867188 110.542969 49.027344 L 110.515625 49.035156 C 110.386719 49.054688 110.238281 49.058594 110.082031 49.058594 C 109.300781 49.058594 108.582031 48.8125 107.992188 48.390625 L 108.007812 48.398438 C 107.703125 48.1875 107.4375 47.945312 107.21875 47.671875 L 107.210938 47.664062 C 107.019531 47.453125 106.882812 47.183594 106.828125 46.890625 L 106.828125 46.878906 C 106.828125 46.847656 106.824219 46.816406 106.824219 46.785156 C 106.824219 46.519531 106.921875 46.269531 107.089844 46.085938 C 107.289062 45.855469 107.523438 45.667969 107.796875 45.53125 L 107.808594 45.527344 C 108.398438 45.191406 109.191406 44.945312 110.089844 44.808594 C 110.421875 44.757812 110.757812 44.734375 111.066406 44.726562 L 111.066406 44.746094 L 111.371094 44.746094 C 111.773438 44.757812 112.148438 44.800781 112.476562 44.882812 C 112.804688 44.957031 113.089844 45.066406 113.316406 45.222656 C 113.546875 45.378906 113.722656 45.613281 113.777344 45.90625 Z M 113.777344 45.90625 " fill-opacity="1" fill-rule="nonzero"/><path fill="#32648d" d="M 44.796875 70.085938 C 44.796875 68.96875 44.882812 67.878906 45.042969 66.804688 L 45.03125 66.921875 C 45.664062 62.34375 45.75 58.058594 45.675781 54.675781 C 45.601562 51.378906 45.367188 49.183594 45.367188 47.8125 C 45.367188 47.796875 45.367188 47.777344 45.367188 47.757812 C 45.367188 47.738281 45.367188 47.714844 45.367188 47.695312 L 45.367188 47.664062 L 45.359375 47.628906 L 45.359375 47.621094 C 45.359375 47.609375 45.359375 47.601562 45.359375 47.589844 C 45.359375 40.253906 46.648438 33.21875 48.984375 26.691406 C 50.703125 22.078125 53.257812 17.398438 57.082031 13.605469 C 53.316406 12.351562 46.648438 10.445312 39.421875 10.085938 C 38.726562 10.046875 37.914062 10.023438 37.101562 10.023438 L 37.097656 10.023438 L 37.097656 10.027344 C 36.324219 10.027344 35.542969 10.054688 34.773438 10.097656 C 28.585938 10.457031 22.734375 12.273438 18.558594 16.761719 C 14.367188 21.246094 11.609375 28.605469 12.210938 40.785156 C 12.328125 43.089844 13.320312 49.550781 15.019531 57.222656 C 16.722656 64.898438 19.121094 73.925781 22.011719 81.90625 C 24.90625 89.882812 28.414062 96.824219 31.746094 100.109375 C 33.425781 101.753906 34.882812 102.414062 36.203125 102.359375 C 37.53125 102.296875 39.128906 101.523438 41.082031 99.148438 C 44.917969 94.476562 48.546875 90.339844 52.289062 86.324219 L 52.164062 86.453125 C 47.640625 82.457031 44.796875 76.613281 44.796875 70.085938 Z M 44.796875 70.085938 " fill-opacity="1" fill-rule="nonzero"/><path fill="#32648d" d="M 77.765625 9.71875 L 77.765625 9.707031 C 70.523438 9.726562 65.335938 11.9375 61.394531 15.253906 C 57.335938 18.683594 54.613281 23.375 52.824219 28.175781 C 50.695312 33.878906 49.972656 39.398438 49.679688 43.140625 L 49.761719 43.089844 C 51.949219 41.851562 54.816406 40.613281 57.890625 39.890625 C 60.96875 39.171875 64.277344 38.957031 67.277344 40.132812 C 70.277344 41.3125 72.757812 44.082031 73.65625 48.285156 C 77.960938 68.472656 72.316406 75.980469 70.234375 81.644531 C 69.570312 83.273438 68.882812 85.371094 68.304688 87.507812 L 68.207031 87.921875 C 68.46875 87.863281 68.734375 87.789062 68.992188 87.761719 C 70.460938 87.636719 71.617188 88.132812 72.296875 88.433594 C 74.390625 89.3125 75.832031 91.160156 76.605469 93.265625 C 76.808594 93.816406 76.953125 94.414062 77.039062 95.027344 C 77.121094 95.238281 77.164062 95.484375 77.164062 95.738281 C 77.164062 95.765625 77.164062 95.789062 77.164062 95.8125 C 77.0625 98.914062 77.003906 102.550781 77.003906 106.207031 C 77.003906 110.542969 77.089844 114.855469 77.25 119.152344 C 77.390625 122.410156 77.597656 125.300781 77.851562 127.574219 C 78.117188 129.890625 78.488281 131.648438 78.726562 132.242188 C 79.507812 134.226562 80.652344 136.824219 82.722656 138.589844 C 84.792969 140.347656 87.761719 141.527344 93.1875 140.347656 C 97.890625 139.328125 100.792969 137.90625 102.730469 135.867188 C 104.671875 133.828125 105.824219 130.988281 106.5625 126.644531 C 107.671875 120.136719 109.898438 101.261719 110.167969 97.710938 C 110.046875 95.03125 110.4375 92.976562 111.285156 91.40625 C 112.152344 89.796875 113.503906 88.808594 114.664062 88.277344 C 115.246094 88.011719 115.792969 87.832031 116.238281 87.699219 C 115.691406 86.914062 115.203125 86.257812 114.695312 85.617188 L 114.75 85.6875 C 113.144531 83.726562 111.773438 81.476562 110.738281 79.054688 L 110.671875 78.875 C 110.046875 77.578125 109.519531 76.597656 108.96875 75.636719 L 109.097656 75.878906 C 108.285156 74.390625 107.257812 72.53125 106.175781 70.445312 C 104.019531 66.261719 101.675781 61.191406 100.457031 56.25 C 99.242188 51.316406 99.066406 46.207031 102.179688 42.609375 C 104.933594 39.410156 109.773438 38.082031 117.03125 38.828125 C 116.820312 38.175781 116.691406 37.636719 116.324219 36.769531 C 114.558594 32.617188 112.433594 29.03125 109.910156 25.785156 C 103.753906 17.839844 93.804688 9.972656 78.445312 9.71875 Z M 77.765625 9.71875 " fill-opacity="1" fill-rule="nonzero"/><path fill="#32648d" d="M 49.59375 48.160156 L 49.605469 48.15625 L 49.625 48.136719 Z M 49.59375 48.160156 " fill-opacity="1" fill-rule="nonzero"/><path fill="#32648d" d="M 58.703125 43.964844 L 58.765625 43.957031 L 58.816406 43.941406 Z M 58.703125 43.964844 " fill-opacity="1" fill-rule="nonzero"/><path fill="#32648d" d="M 66.382812 80.1875 C 68.871094 73.40625 73.761719 68.460938 69.644531 49.160156 C 68.96875 45.996094 67.636719 44.722656 65.800781 44.003906 C 64.910156 43.671875 63.875 43.480469 62.789062 43.480469 C 62.722656 43.480469 62.648438 43.480469 62.578125 43.480469 L 62.589844 43.480469 C 61.269531 43.492188 59.992188 43.660156 58.765625 43.957031 C 56.164062 44.617188 53.871094 45.546875 51.738281 46.734375 C 50.9375 47.175781 50.25 47.632812 49.605469 48.148438 L 49.488281 48.261719 C 49.523438 49.164062 49.699219 51.359375 49.773438 54.589844 C 49.847656 58.121094 49.761719 62.628906 49.085938 67.507812 C 47.621094 78.105469 55.222656 86.882812 64.148438 86.894531 C 64.671875 84.71875 65.527344 82.511719 66.382812 80.1875 Z M 61.109375 49.386719 C 60.816406 49.089844 60.582031 48.757812 60.390625 48.390625 L 60.378906 48.367188 C 60.21875 48.105469 60.125 47.789062 60.125 47.449219 C 60.125 47.386719 60.128906 47.324219 60.136719 47.261719 L 60.136719 47.269531 C 60.230469 46.597656 60.773438 46.253906 61.300781 46.058594 C 61.792969 45.898438 62.335938 45.804688 62.917969 45.804688 C 63.007812 45.804688 63.09375 45.804688 63.191406 45.8125 L 63.1875 45.789062 C 63.507812 45.789062 63.855469 45.816406 64.203125 45.867188 C 65.136719 45.996094 65.976562 46.253906 66.609375 46.625 C 66.921875 46.796875 67.195312 47.015625 67.414062 47.273438 L 67.417969 47.28125 C 67.628906 47.523438 67.753906 47.839844 67.753906 48.191406 C 67.753906 48.242188 67.753906 48.292969 67.746094 48.339844 L 67.746094 48.335938 C 67.6875 48.707031 67.519531 49.027344 67.289062 49.289062 C 67.035156 49.597656 66.75 49.867188 66.425781 50.089844 L 66.414062 50.09375 C 65.789062 50.554688 65.003906 50.828125 64.152344 50.828125 C 63.984375 50.828125 63.816406 50.8125 63.65625 50.796875 L 63.675781 50.796875 C 62.648438 50.621094 61.765625 50.113281 61.109375 49.386719 Z M 61.109375 49.386719 " fill-opacity="1" fill-rule="nonzero"/><path fill="#32648d" d="M 51.613281 46.796875 C 51.65625 46.773438 51.699219 46.761719 51.738281 46.734375 C 51.742188 46.734375 51.75 46.730469 51.757812 46.722656 Z M 51.613281 46.796875 " fill-opacity="1" fill-rule="nonzero"/><path fill="#32648d" d="M 113.210938 23.257812 C 115.898438 26.695312 118.222656 30.613281 120.011719 34.816406 L 120.140625 35.15625 C 120.816406 36.792969 121.269531 38.175781 121.523438 39.246094 C 121.65625 39.789062 121.742188 40.238281 121.773438 40.710938 C 121.785156 40.945312 121.796875 41.1875 121.699219 41.601562 C 121.699219 41.621094 121.667969 41.664062 121.660156 41.683594 C 121.847656 47.113281 120.515625 50.796875 120.359375 55.976562 C 120.234375 59.734375 121.183594 64.148438 121.417969 68.960938 C 121.640625 73.488281 121.101562 78.457031 118.195312 83.335938 C 118.445312 83.632812 118.660156 83.933594 118.898438 84.230469 C 126.578125 71.988281 132.113281 58.445312 135.0625 46.898438 C 136.640625 40.679688 137.480469 35.046875 137.554688 30.582031 C 137.617188 26.121094 136.792969 22.882812 135.75 21.53125 C 127.53125 10.898438 116.417969 8.1875 107.09375 8.113281 L 107.09375 8.121094 L 106.203125 8.121094 C 102.609375 8.175781 99.136719 8.589844 95.78125 9.316406 C 103.394531 12.738281 109.160156 18.007812 113.210938 23.257812 Z M 113.210938 23.257812 " fill-opacity="1" fill-rule="nonzero"/><path fill="#32648d" d="M 78.789062 1.597656 L 78.726562 1.597656 C 71.511719 1.476562 65.316406 3.246094 60.316406 6.199219 C 55.394531 4.46875 45.1875 1.488281 34.417969 2.082031 C 26.925781 2.496094 18.742188 4.804688 12.683594 11.28125 C 6.636719 17.757812 3.445312 27.78125 4.117188 41.417969 C 4.300781 45.179688 5.363281 51.316406 7.117188 59.261719 C 8.875 67.207031 11.34375 76.511719 14.421875 84.996094 C 17.503906 93.488281 20.875 101.113281 26.152344 106.296875 C 28.785156 108.890625 32.410156 111.074219 36.683594 110.894531 C 39.683594 110.769531 42.390625 109.4375 44.734375 107.472656 C 45.875 108.992188 47.089844 109.65625 48.199219 110.269531 C 49.59375 111.042969 50.949219 111.570312 52.359375 111.917969 C 54.886719 112.554688 59.210938 113.410156 64.28125 112.539062 C 66.011719 112.246094 67.828125 111.675781 69.636719 110.863281 C 69.707031 112.910156 69.789062 114.910156 69.863281 116.9375 C 70.117188 123.359375 70.269531 129.292969 72.171875 134.492188 C 72.476562 135.339844 73.320312 139.71875 76.625 143.578125 C 79.925781 147.445312 86.410156 149.859375 93.789062 148.257812 C 98.992188 147.128906 105.609375 145.097656 110.007812 138.761719 C 114.351562 132.503906 116.3125 123.519531 116.703125 108.953125 C 116.800781 108.167969 116.917969 107.496094 117.039062 106.871094 L 118.074219 106.964844 L 118.195312 106.964844 C 123.75 107.21875 129.773438 106.417969 134.808594 104.050781 C 139.265625 101.960938 142.636719 99.847656 145.097656 96.097656 C 145.710938 95.167969 146.378906 94.046875 146.566406 92.113281 C 146.753906 90.179688 145.65625 87.15625 143.832031 85.761719 C 140.1875 82.957031 137.902344 84.023438 135.445312 84.539062 C 133.257812 85.054688 130.730469 85.375 128.136719 85.445312 L 128.089844 85.445312 C 135.167969 73.375 140.242188 60.558594 143.136719 49.214844 C 144.855469 42.519531 145.816406 36.347656 145.890625 30.949219 C 145.972656 25.550781 145.539062 20.769531 142.339844 16.636719 C 132.351562 3.71875 118.3125 0.148438 107.449219 0.0234375 C 107.113281 0.0195312 106.773438 0.0117188 106.4375 0.0195312 L 106.4375 0 C 100.523438 0.0507812 94.835938 0.941406 89.449219 2.535156 L 89.195312 2.621094 C 86.082031 2.039062 82.46875 1.667969 78.789062 1.597656 Z M 93.472656 5.546875 C 97.265625 4.613281 101.628906 4.046875 106.117188 3.992188 L 106.152344 3.992188 L 106.160156 3.96875 C 116.4375 3.867188 129.558594 6.789062 138.984375 18.980469 C 141.105469 21.71875 141.738281 25.722656 141.664062 30.65625 C 141.582031 35.585938 140.683594 41.484375 139.035156 47.949219 C 135.835938 60.472656 129.800781 75.066406 121.296875 88.164062 C 121.574219 88.371094 121.898438 88.550781 122.230469 88.6875 L 122.261719 88.699219 C 124.035156 89.441406 128.082031 90.082031 136.160156 88.402344 C 138.191406 87.96875 139.679688 87.675781 141.222656 88.867188 C 141.917969 89.460938 142.351562 90.339844 142.351562 91.328125 C 142.351562 91.386719 142.351562 91.449219 142.34375 91.511719 L 142.34375 91.507812 C 142.253906 92.292969 141.972656 93 141.546875 93.589844 C 139.984375 95.960938 136.902344 98.210938 132.960938 100.066406 C 129.464844 101.714844 124.449219 102.578125 120.007812 102.625 C 117.773438 102.652344 115.722656 102.476562 113.976562 101.925781 L 113.863281 101.882812 C 113.1875 108.453125 111.636719 121.425781 110.628906 127.34375 C 109.824219 132.117188 108.410156 135.910156 105.707031 138.75 C 103.011719 141.589844 99.199219 143.300781 94.066406 144.414062 C 87.710938 145.796875 83.078125 144.308594 80.089844 141.761719 C 77.109375 139.222656 75.742188 135.847656 74.917969 133.785156 C 74.355469 132.359375 74.0625 130.511719 73.777344 128.046875 C 73.492188 125.578125 73.289062 122.558594 73.148438 119.15625 C 73.011719 115.699219 72.9375 111.632812 72.9375 107.546875 C 72.9375 106.203125 72.949219 104.863281 72.960938 103.519531 C 70.402344 105.898438 67.164062 107.574219 63.570312 108.210938 L 63.457031 108.230469 C 59.238281 108.953125 55.476562 108.242188 53.226562 107.671875 C 52.027344 107.367188 50.988281 106.941406 50.007812 106.40625 C 48.980469 105.847656 48 105.210938 47.34375 103.964844 C 47.082031 103.488281 46.925781 102.910156 46.925781 102.304688 C 46.925781 102.0625 46.953125 101.820312 47.003906 101.597656 C 47.226562 100.765625 47.691406 100.058594 48.328125 99.5625 L 48.335938 99.558594 C 49.550781 98.558594 51.148438 98.003906 53.574219 97.492188 C 57.972656 96.578125 59.511719 95.949219 60.445312 95.199219 C 61.238281 94.554688 62.144531 93.253906 63.730469 91.34375 C 63.726562 91.289062 63.71875 91.195312 63.710938 91.109375 L 63.710938 91.089844 C 60.710938 91.003906 57.917969 90.191406 55.476562 88.824219 L 55.566406 88.871094 C 54.652344 89.851562 49.957031 94.871094 44.242188 101.839844 C 41.839844 104.753906 39.179688 106.425781 36.378906 106.542969 C 33.578125 106.660156 31.042969 105.234375 28.882812 103.121094 C 24.578125 98.886719 21.140625 91.605469 18.148438 83.375 C 15.160156 75.140625 12.730469 65.976562 11.003906 58.164062 C 9.265625 50.355469 8.25 44.058594 8.101562 41.019531 C 7.457031 28.117188 10.4375 19.417969 15.550781 13.933594 C 20.671875 8.449219 27.6875 6.371094 34.523438 5.976562 C 46.804688 5.261719 58.457031 9.59375 60.816406 10.523438 C 65.367188 7.402344 71.226562 5.453125 78.53125 5.578125 C 82.214844 5.632812 85.753906 6.125 89.136719 6.996094 L 88.828125 6.929688 L 88.953125 6.875 C 90.136719 6.425781 91.648438 5.976562 93.199219 5.601562 Z M 93.472656 5.546875 " fill-opacity="1" fill-rule="nonzero"/></svg>