<svg xmlns="http://www.w3.org/2000/svg" xmlns:xlink="http://www.w3.org/1999/xlink" width="200" zoomAndPan="magnify" viewBox="0 0 150 149.999998" height="200" preserveAspectRatio="xMidYMid meet" version="1.0"><path fill="#00d8ff" d="M 123.226562 51.542969 C 121.675781 51.007812 120.070312 50.503906 118.410156 50.027344 C 118.683594 48.914062 118.933594 47.816406 119.15625 46.738281 C 122.800781 29.042969 120.417969 14.785156 112.273438 10.089844 C 104.464844 5.589844 91.691406 10.28125 78.792969 21.503906 C 77.554688 22.582031 76.308594 23.722656 75.070312 24.921875 C 74.238281 24.128906 73.414062 23.363281 72.589844 22.628906 C 59.074219 10.632812 45.523438 5.578125 37.386719 10.285156 C 29.585938 14.800781 27.277344 28.203125 30.558594 44.976562 C 30.875 46.597656 31.246094 48.25 31.664062 49.933594 C 29.75 50.476562 27.898438 51.058594 26.125 51.675781 C 10.277344 57.195312 0.15625 65.851562 0.15625 74.832031 C 0.15625 84.101562 11.023438 93.40625 27.527344 99.046875 C 28.832031 99.488281 30.183594 99.910156 31.574219 100.308594 C 31.125 102.125 30.730469 103.910156 30.402344 105.648438 C 27.269531 122.132812 29.714844 135.21875 37.496094 139.699219 C 45.53125 144.335938 59.019531 139.570312 72.152344 128.097656 C 73.191406 127.191406 74.234375 126.230469 75.273438 125.222656 C 76.632812 126.519531 77.980469 127.753906 79.320312 128.910156 C 92.042969 139.851562 104.609375 144.269531 112.378906 139.777344 C 120.40625 135.128906 123.023438 121.066406 119.628906 103.964844 C 119.375 102.65625 119.070312 101.324219 118.734375 99.96875 C 119.683594 99.6875 120.613281 99.394531 121.519531 99.097656 C 138.679688 93.410156 149.84375 84.230469 149.84375 74.832031 C 149.84375 65.820312 139.394531 57.105469 123.226562 51.542969 Z M 119.507812 93.03125 C 118.6875 93.300781 117.847656 93.5625 116.992188 93.816406 C 115.097656 87.824219 112.542969 81.449219 109.410156 74.859375 C 112.398438 68.433594 114.851562 62.140625 116.695312 56.183594 C 118.226562 56.625 119.710938 57.09375 121.144531 57.585938 C 134.996094 62.351562 143.445312 69.402344 143.445312 74.832031 C 143.445312 80.613281 134.324219 88.121094 119.507812 93.03125 Z M 113.355469 105.207031 C 114.859375 112.769531 115.070312 119.605469 114.074219 124.953125 C 113.1875 129.757812 111.390625 132.960938 109.175781 134.242188 C 104.457031 136.972656 94.371094 133.421875 83.496094 124.066406 C 82.246094 122.992188 80.988281 121.84375 79.730469 120.636719 C 83.945312 116.023438 88.160156 110.664062 92.277344 104.707031 C 99.511719 104.070312 106.347656 103.019531 112.550781 101.589844 C 112.855469 102.820312 113.121094 104.023438 113.355469 105.207031 Z M 51.191406 133.769531 C 46.582031 135.398438 42.910156 135.445312 40.691406 134.164062 C 35.972656 131.441406 34.007812 120.933594 36.6875 106.84375 C 36.992188 105.230469 37.355469 103.570312 37.777344 101.875 C 43.910156 103.230469 50.695312 104.207031 57.949219 104.789062 C 62.09375 110.617188 66.429688 115.972656 70.796875 120.660156 C 69.84375 121.582031 68.890625 122.457031 67.945312 123.28125 C 62.140625 128.363281 56.320312 131.960938 51.191406 133.769531 Z M 29.597656 92.996094 C 22.300781 90.5 16.273438 87.261719 12.140625 83.722656 C 8.429688 80.546875 6.554688 77.390625 6.554688 74.832031 C 6.554688 69.382812 14.679688 62.433594 28.234375 57.710938 C 29.878906 57.136719 31.597656 56.597656 33.386719 56.089844 C 35.257812 62.179688 37.714844 68.546875 40.679688 74.984375 C 37.675781 81.519531 35.183594 87.988281 33.292969 94.152344 C 32.019531 93.785156 30.785156 93.398438 29.597656 92.996094 Z M 36.835938 43.75 C 34.023438 29.378906 35.890625 18.539062 40.59375 15.816406 C 45.601562 12.921875 56.675781 17.050781 68.34375 27.410156 C 69.089844 28.074219 69.839844 28.765625 70.59375 29.480469 C 66.242188 34.152344 61.945312 39.464844 57.839844 45.253906 C 50.800781 45.90625 44.0625 46.957031 37.867188 48.359375 C 37.476562 46.792969 37.132812 45.253906 36.835938 43.75 Z M 101.398438 59.683594 C 99.921875 57.128906 98.402344 54.632812 96.851562 52.203125 C 101.628906 52.804688 106.199219 53.609375 110.496094 54.585938 C 109.210938 58.71875 107.605469 63.042969 105.710938 67.472656 C 104.351562 64.894531 102.914062 62.296875 101.398438 59.683594 Z M 75.070312 34.050781 C 78.023438 37.246094 80.976562 40.808594 83.882812 44.679688 C 80.953125 44.542969 77.988281 44.46875 75 44.46875 C 72.042969 44.46875 69.101562 44.539062 66.1875 44.675781 C 69.09375 40.84375 72.078125 37.28125 75.070312 34.050781 Z M 48.574219 59.730469 C 47.09375 62.292969 45.683594 64.878906 44.347656 67.46875 C 42.484375 63.050781 40.890625 58.710938 39.589844 54.519531 C 43.863281 53.566406 48.417969 52.785156 53.160156 52.191406 C 51.589844 54.644531 50.054688 57.15625 48.574219 59.730469 Z M 53.296875 97.921875 C 48.394531 97.378906 43.773438 96.636719 39.503906 95.707031 C 40.824219 91.441406 42.453125 87.011719 44.355469 82.5 C 45.695312 85.089844 47.109375 87.671875 48.597656 90.242188 C 50.113281 92.863281 51.6875 95.421875 53.296875 97.921875 Z M 75.246094 116.058594 C 72.21875 112.792969 69.195312 109.175781 66.242188 105.289062 C 69.105469 105.398438 72.03125 105.457031 75 105.457031 C 78.050781 105.457031 81.070312 105.386719 84.035156 105.257812 C 81.121094 109.214844 78.175781 112.839844 75.246094 116.058594 Z M 105.769531 82.273438 C 107.765625 86.832031 109.457031 91.238281 110.796875 95.433594 C 106.457031 96.421875 101.769531 97.214844 96.832031 97.8125 C 98.390625 95.351562 99.921875 92.808594 101.429688 90.195312 C 102.957031 87.554688 104.398438 84.90625 105.769531 82.273438 Z M 95.886719 87.003906 C 93.546875 91.0625 91.144531 94.929688 88.707031 98.582031 C 84.269531 98.898438 79.679688 99.0625 75 99.0625 C 70.339844 99.0625 65.808594 98.921875 61.445312 98.636719 C 58.910156 94.9375 56.457031 91.054688 54.132812 87.039062 C 51.8125 83.039062 49.679688 79 47.746094 74.984375 C 49.679688 70.960938 51.808594 66.917969 54.113281 62.921875 C 56.425781 58.917969 58.855469 55.050781 61.371094 51.375 C 65.820312 51.035156 70.386719 50.859375 75 50.859375 C 79.636719 50.859375 84.203125 51.039062 88.652344 51.378906 C 91.132812 55.03125 93.546875 58.878906 95.867188 62.886719 C 98.214844 66.941406 100.371094 70.957031 102.316406 74.894531 C 100.375 78.898438 98.226562 82.957031 95.886719 87.003906 Z M 109.078125 15.625 C 114.09375 18.515625 116.039062 30.167969 112.890625 45.449219 C 112.691406 46.421875 112.460938 47.417969 112.21875 48.421875 C 106.007812 46.992188 99.265625 45.925781 92.207031 45.261719 C 88.09375 39.40625 83.828125 34.085938 79.550781 29.476562 C 80.703125 28.371094 81.851562 27.316406 82.992188 26.320312 C 94.042969 16.710938 104.375 12.914062 109.078125 15.625 Z M 75 61.46875 C 82.378906 61.46875 88.367188 67.449219 88.367188 74.828125 C 88.367188 82.207031 82.378906 88.191406 75 88.191406 C 67.621094 88.191406 61.632812 82.207031 61.632812 74.828125 C 61.632812 67.449219 67.621094 61.46875 75 61.46875 Z M 75 61.46875 " fill-opacity="1" fill-rule="nonzero"/></svg>