<svg xmlns="http://www.w3.org/2000/svg" xmlns:xlink="http://www.w3.org/1999/xlink" width="200" zoomAndPan="magnify" viewBox="0 0 150 149.999998" height="200" preserveAspectRatio="xMidYMid meet" version="1.0"><path fill="#000000" d="M 103.109375 111.742188 C 100.011719 112.210938 96.921875 112.492188 93.730469 112.492188 C 90.542969 112.492188 87.449219 112.210938 84.355469 111.742188 L 84.355469 78.835938 L 60.914062 102.085938 C 56.226562 98.429688 51.539062 93.742188 47.882812 89.054688 L 71.136719 65.613281 L 38.226562 65.613281 C 37.757812 62.519531 37.476562 59.425781 37.476562 56.238281 C 37.476562 53.050781 37.757812 49.957031 38.226562 46.863281 L 71.136719 46.863281 L 47.882812 23.421875 C 49.664062 21.078125 51.539062 18.734375 53.976562 16.484375 C 56.226562 14.046875 58.574219 12.171875 60.914062 10.390625 L 84.355469 33.644531 L 84.355469 0.734375 C 87.449219 0.265625 90.542969 -0.015625 93.730469 -0.015625 C 96.921875 -0.015625 100.011719 0.265625 103.109375 0.734375 L 103.109375 33.644531 L 126.546875 10.390625 C 131.234375 14.046875 135.921875 18.734375 139.578125 23.421875 L 116.328125 46.863281 L 149.238281 46.863281 C 149.707031 49.957031 149.988281 53.050781 149.988281 56.238281 C 149.988281 59.425781 149.707031 62.519531 149.238281 65.613281 L 116.328125 65.613281 L 139.578125 89.054688 C 137.796875 91.398438 135.921875 93.742188 133.484375 95.992188 C 131.234375 98.429688 128.890625 100.304688 126.546875 102.085938 L 103.109375 78.835938 Z M -0.0273438 131.246094 C -0.0273438 126.273438 1.949219 121.503906 5.464844 117.984375 C 8.984375 114.46875 13.75 112.492188 18.726562 112.492188 C 23.699219 112.492188 28.46875 114.46875 31.984375 117.984375 C 35.5 121.503906 37.476562 126.273438 37.476562 131.246094 C 37.476562 136.21875 35.5 140.988281 31.984375 144.503906 C 28.46875 148.023438 23.699219 149.996094 18.726562 149.996094 C 13.75 149.996094 8.984375 148.023438 5.464844 144.503906 C 1.949219 140.988281 -0.0273438 136.21875 -0.0273438 131.246094 Z M -0.0273438 131.246094 " fill-opacity="1" fill-rule="nonzero"/></svg>