<svg xmlns="http://www.w3.org/2000/svg" xmlns:xlink="http://www.w3.org/1999/xlink" width="200" zoomAndPan="magnify" viewBox="0 0 150 149.999998" height="200" preserveAspectRatio="xMidYMid meet" version="1.0"><path fill="#ea6f16" d="M 20 20 L 20 130 C 20 133.871094 22.519531 138 28.078125 141.21875 C 36.886719 146.308594 54.574219 150 75 150 C 95.425781 150 113.113281 146.308594 121.921875 141.21875 C 127.480469 138 130 133.871094 130 130 C 130 130 130 19.910156 130 19.910156 C 129.960938 16.066406 127.441406 11.976562 121.921875 8.78125 C 113.113281 3.691406 95.425781 0 75 0 C 54.574219 0 36.886719 3.691406 28.078125 8.78125 C 22.519531 12 20 16.128906 20 20 Z M 120 104.738281 C 110.695312 109.292969 94.03125 112.5 75 112.5 C 55.964844 112.5 39.300781 109.292969 30 104.738281 L 30 130 C 30 130.417969 30.480469 130.644531 30.894531 131.023438 C 32.203125 132.199219 34.144531 133.246094 36.546875 134.230469 C 45.21875 137.773438 59.226562 140 75 140 C 90.773438 140 104.78125 137.773438 113.453125 134.230469 C 115.855469 133.246094 117.796875 132.199219 119.105469 131.023438 C 119.519531 130.644531 120 130.417969 120 130 Z M 120 69.738281 C 110.695312 74.292969 94.03125 77.5 75 77.5 C 55.964844 77.5 39.300781 74.292969 30 69.738281 L 30 92.496094 C 30.003906 92.925781 30.488281 93.160156 30.921875 93.542969 C 32.238281 94.726562 34.183594 95.765625 36.59375 96.75 C 45.269531 100.285156 59.253906 102.5 75 102.5 C 90.773438 102.5 104.78125 100.273438 113.453125 96.730469 C 115.855469 95.746094 117.796875 94.699219 119.105469 93.523438 C 119.519531 93.144531 120 92.917969 120 92.5 Z M 120 32.238281 C 110.695312 36.792969 94.03125 40 75 40 C 55.96875 40 39.304688 36.792969 30 32.238281 L 30 57.496094 C 30.003906 57.925781 30.488281 58.160156 30.921875 58.542969 C 32.238281 59.726562 34.183594 60.765625 36.59375 61.75 C 45.269531 65.285156 59.253906 67.5 75 67.5 C 90.773438 67.5 104.78125 65.273438 113.453125 61.730469 C 115.855469 60.746094 117.796875 59.699219 119.105469 58.523438 C 119.519531 58.144531 120 57.917969 120 57.5 Z M 75 10 C 90.773438 10 104.78125 12.226562 113.453125 15.769531 C 115.855469 16.753906 117.796875 17.800781 119.105469 18.976562 C 119.519531 19.355469 120 19.578125 120 20 C 120 20.417969 119.519531 20.644531 119.105469 21.023438 C 117.796875 22.199219 115.855469 23.246094 113.453125 24.230469 C 104.78125 27.773438 90.773438 30 75 30 C 59.226562 30 45.21875 27.773438 36.546875 24.230469 C 34.144531 23.246094 32.203125 22.199219 30.894531 21.023438 C 30.480469 20.644531 30 20.417969 30 20 C 30 19.578125 30.480469 19.355469 30.894531 18.976562 C 32.203125 17.800781 34.144531 16.753906 36.546875 15.769531 C 45.21875 12.226562 59.226562 10 75 10 Z M 75 10 " fill-opacity="1" fill-rule="evenodd"/></svg>