<svg xmlns="http://www.w3.org/2000/svg" xmlns:xlink="http://www.w3.org/1999/xlink" width="200" zoomAndPan="magnify" viewBox="0 0 150 149.999998" height="200" preserveAspectRatio="xMidYMid meet" version="1.0"><defs><clipPath id="b6850bb58f"><path d="M 1 9.527344 L 150 9.527344 L 150 143 L 1 143 Z M 1 9.527344 " clip-rule="nonzero"/></clipPath></defs><g clip-path="url(#b6850bb58f)"><path fill="#e94e36" d="M 93.332031 9.371094 C 108.378906 29.652344 114.324219 53.773438 109.078125 75.453125 C 108.730469 77.195312 108.03125 79.300781 107.332031 81.042969 C 106.222656 80.421875 105.304688 79.851562 104.425781 79.230469 L 104.523438 79.300781 C 104.523438 79.300781 70.597656 58.324219 34.222656 21.613281 C 33.167969 20.566406 53.808594 50.972656 76.898438 75.101562 C 66.054688 68.804688 35.269531 46.785156 16.027344 28.949219 C 18.128906 32.792969 21.277344 36.640625 24.421875 40.488281 C 40.515625 61.121094 61.507812 86.28125 86.695312 105.507812 C 68.855469 116.359375 44.015625 117.046875 18.828125 105.507812 C 12.527344 102.71875 7.285156 99.222656 1.335938 95.023438 C 11.828125 111.457031 28.269531 126.496094 47.863281 134.53125 C 71.300781 144.679688 95.085938 143.976562 112.230469 134.53125 L 112.585938 134.53125 C 113.285156 134.179688 113.980469 133.835938 114.679688 133.136719 C 123.078125 128.9375 139.519531 124.390625 148.617188 141.878906 C 151.0625 146.773438 155.609375 124.046875 138.472656 103.070312 L 138.464844 103.070312 C 138.816406 102.375 138.816406 101.675781 139.164062 100.976562 C 147.5625 68.105469 127.617188 29.652344 93.332031 9.371094 Z M 93.332031 9.371094 " fill-opacity="1" fill-rule="nonzero"/></g></svg>