<svg xmlns="http://www.w3.org/2000/svg" xmlns:xlink="http://www.w3.org/1999/xlink" width="200" zoomAndPan="magnify" viewBox="0 0 150 149.999998" height="200" preserveAspectRatio="xMidYMid meet" version="1.0"><defs><clipPath id="744e342570"><path d="M 121 39 L 144.1875 39 L 144.1875 112 L 121 112 Z M 121 39 " clip-rule="nonzero"/></clipPath><clipPath id="a621cf6e00"><path d="M 6.1875 39 L 29 39 L 29 112 L 6.1875 112 Z M 6.1875 39 " clip-rule="nonzero"/></clipPath></defs><path fill="#000000" d="M 14.84375 37.539062 L 14.847656 37.53125 L 14.84375 37.53125 Z M 14.84375 37.539062 " fill-opacity="1" fill-rule="nonzero"/><path fill="#1b75bb" d="M 77.90625 117.125 L 116.003906 96.574219 L 116.003906 55.867188 L 77.90625 77.445312 Z M 77.90625 117.125 " fill-opacity="1" fill-rule="nonzero"/><g clip-path="url(#744e342570)"><path fill="#8ad0f3" d="M 144.125 39.9375 L 121.445312 52.773438 L 121.445312 98.992188 L 144.125 111.851562 Z M 144.125 39.9375 " fill-opacity="1" fill-rule="nonzero"/></g><path fill="#1b75bb" d="M 113.449219 51.15625 L 75.199219 30.519531 L 36.953125 51.15625 L 75.199219 72.8125 Z M 113.449219 51.15625 " fill-opacity="1" fill-rule="nonzero"/><path fill="#8ad0f3" d="M 116.53125 102.375 L 77.90625 123.210938 L 77.90625 150 L 139.886719 115.613281 Z M 116.53125 102.375 " fill-opacity="1" fill-rule="nonzero"/><path fill="#8ad0f3" d="M 72.472656 123.210938 L 33.855469 102.375 L 10.492188 115.613281 L 72.472656 150 Z M 72.472656 123.210938 " fill-opacity="1" fill-rule="nonzero"/><g clip-path="url(#a621cf6e00)"><path fill="#8ad0f3" d="M 6.25 111.851562 L 28.929688 98.992188 L 28.929688 52.773438 L 6.25 39.9375 Z M 6.25 111.851562 " fill-opacity="1" fill-rule="nonzero"/></g><path fill="#8ad0f3" d="M 31.4375 48.039062 L 72.46875 25.898438 L 72.46875 0 L 8.90625 35.273438 Z M 31.4375 48.039062 " fill-opacity="1" fill-rule="nonzero"/><path fill="#1b75bb" d="M 72.472656 77.445312 L 34.375 55.867188 L 34.375 96.574219 L 72.472656 117.125 Z M 72.472656 77.445312 " fill-opacity="1" fill-rule="nonzero"/><path fill="#8ad0f3" d="M 77.90625 25.898438 L 118.9375 48.042969 L 141.472656 35.273438 L 77.90625 0 Z M 77.90625 25.898438 " fill-opacity="1" fill-rule="nonzero"/></svg>