<svg xmlns="http://www.w3.org/2000/svg" xmlns:xlink="http://www.w3.org/1999/xlink" width="200" zoomAndPan="magnify" viewBox="0 0 150 149.999998" height="200" preserveAspectRatio="xMidYMid meet" version="1.0"><path fill="#000000" d="M 145.785156 99.695312 C 148.488281 91.914062 150 83.699219 150 75.054688 C 150 66.410156 148.488281 58.085938 145.785156 50.414062 C 145.679688 50.199219 145.679688 49.980469 145.570312 49.765625 C 135.195312 20.804688 107.421875 0.0546875 75 0.0546875 C 42.578125 0.0546875 14.804688 20.804688 4.429688 49.65625 C 4.324219 49.875 4.214844 50.089844 4.214844 50.304688 C 1.511719 58.085938 0 66.410156 0 75.054688 C 0 83.699219 1.511719 92.019531 4.214844 99.695312 C 4.324219 99.910156 4.324219 100.125 4.429688 100.34375 C 14.804688 129.304688 42.578125 149.945312 75 149.945312 C 107.421875 149.945312 135.195312 129.199219 145.570312 100.34375 C 145.679688 100.125 145.679688 99.910156 145.785156 99.695312 Z M 75 139.246094 C 72.191406 139.246094 67.542969 134.058594 63.652344 122.496094 C 61.816406 116.878906 60.300781 110.5 59.222656 103.585938 L 90.671875 103.585938 C 89.589844 110.5 88.078125 116.984375 86.238281 122.496094 C 82.457031 134.058594 77.808594 139.246094 75 139.246094 Z M 57.925781 92.886719 C 57.382812 87.15625 57.167969 81.214844 57.167969 75.054688 C 57.167969 68.894531 57.492188 62.949219 57.925781 57.222656 L 91.96875 57.222656 C 92.507812 62.949219 92.722656 68.894531 92.722656 75.054688 C 92.722656 81.214844 92.398438 87.15625 91.96875 92.886719 Z M 10.699219 75.054688 C 10.699219 68.894531 11.5625 62.84375 13.183594 57.222656 L 47.117188 57.222656 C 46.578125 63.058594 46.363281 69.109375 46.363281 75.054688 C 46.363281 81 46.578125 87.050781 47.117188 92.886719 L 13.292969 92.886719 C 11.671875 87.15625 10.699219 81.214844 10.699219 75.054688 Z M 75 10.753906 C 77.808594 10.753906 82.457031 15.941406 86.347656 27.503906 C 88.183594 33.125 89.699219 39.5 90.777344 46.414062 L 59.222656 46.414062 C 60.300781 39.390625 61.816406 33.015625 63.652344 27.503906 C 67.542969 15.941406 72.082031 10.753906 75 10.753906 Z M 102.773438 57.222656 L 136.707031 57.222656 C 138.328125 62.84375 139.191406 68.894531 139.191406 75.054688 C 139.191406 81.214844 138.328125 87.265625 136.707031 92.886719 L 102.773438 92.886719 C 103.3125 87.050781 103.53125 81 103.53125 75.054688 C 103.53125 69.003906 103.3125 63.058594 102.773438 57.222656 Z M 132.492188 46.414062 L 101.585938 46.414062 C 99.640625 33.230469 96.398438 21.453125 91.75 13.023438 C 109.582031 17.886719 124.386719 30.207031 132.492188 46.414062 Z M 58.140625 13.023438 C 53.496094 21.453125 50.253906 33.230469 48.308594 46.414062 L 17.507812 46.414062 C 25.613281 30.207031 40.308594 17.886719 58.140625 13.023438 Z M 17.507812 103.585938 L 48.414062 103.585938 C 50.359375 116.769531 53.601562 128.546875 58.25 136.976562 C 40.308594 132.222656 25.613281 119.902344 17.507812 103.585938 Z M 91.75 137.085938 C 96.398438 128.65625 99.640625 116.878906 101.585938 103.691406 L 132.492188 103.691406 C 124.386719 119.902344 109.582031 132.222656 91.75 137.085938 Z M 91.75 137.085938 " fill-opacity="1" fill-rule="nonzero"/></svg>